<svg width="640" height="480" xmlns="http://www.w3.org/2000/svg">
 <!-- Created with SVG-edit - http://svg-edit.googlecode.com/ -->
 <g>
  <title>Layer 1</title>
  <rect id="svg_8" height="43" width="43" y="398" x="175" stroke-linecap="null" stroke-linejoin="null" stroke-width="5" stroke="#000000" fill="#bfbfbf"/>
  <rect transform="rotate(56.61148452758789 412.00000000000017,427.49999999999994) " id="svg_9" height="43" width="64" y="406" x="380" stroke-linecap="null" stroke-linejoin="null" stroke-width="5" stroke="#000000" fill="#bfbfbf"/>
  <rect transform="rotate(-70.06746673583984 299.5000000000001,378.50000000000006) " id="svg_10" height="43" width="43" y="357" x="278" stroke-linecap="null" stroke-linejoin="null" stroke-width="5" stroke="#000000" fill="#bfbfbf"/>
  <rect id="svg_11" height="5" width="58.000002" y="399" x="458" stroke-linecap="null" stroke-linejoin="null" stroke-width="5" stroke="#000000" fill="#bfbfbf"/>
  <path id="svg_13" d="m109.684998,442.274994l0,-36l35.999603,36l-35.999603,0z" stroke-linecap="null" stroke-linejoin="null" stroke-width="5" stroke="#000000" fill="#ff0000"/>
  <path transform="rotate(-89.74456024169922 490.68481445312494,323.2749938964843) " id="svg_14" d="m472.684998,341.274994l0,-36l35.999603,36l-35.999603,0z" stroke-linecap="null" stroke-linejoin="null" stroke-width="5" stroke="#000000" fill="#bfbfbf"/>
  <path transform="rotate(-48.22600555419922 203.55499267578125,336.2943725585937) " id="svg_15" d="m189.054993,358.606873l14.5,-44.625l14.5,44.625l-29,0z" stroke-linecap="null" stroke-linejoin="null" stroke-width="5" stroke="#000000" fill="#bfbfbf"/>
  <path d="m278,435c-2,0 -5.814026,1.54895 -11,3c-5.857788,1.639038 -12,5 -19,8c-7,3 -12.937958,5.498291 -19,6c-3.986374,0.329926 -5.292892,0.707092 -6,0c-0.707108,-0.707092 -0.613129,-2.917603 2,-4c1.847763,-0.765381 4.027252,-0.340149 12,-1c6.062042,-0.501709 13.875931,-1.996582 26,-3c7.972748,-0.659851 19,-2 27,-2c9,0 15,-2 17,-2c2,0 0.9021,0.824432 -1,2c-0.850647,0.525726 -4.053497,0.540497 -6,1c-2.176239,0.513733 -4,1 -5,1c-1,0 -2,0 -4,0c-1,0 -2.712006,0.981628 -8,2c-3.927826,0.756439 -10.080261,2.31073 -13,3c-4.352509,1.027496 -8,2 -13,2c-4,0 -11.506546,-2.121429 -11,1c0.480545,2.961273 8.103302,1.281464 16,0c9.364319,-1.519623 21.893433,-3.997467 36,-5c12.967285,-0.92157 30,-4 43,-4c11,0 17,-1 22,-1c1,0 -1,0 -5,0c-6,0 -14.027039,1.130066 -28,2c-16.093353,1.001923 -32,4 -46,6c-14,2 -25,4 -31,4c-4,0 -6,0 -6,-1c0,-2 2.707413,-6.804932 10,-9c10.705872,-3.222443 20.01123,-3.459747 33,-4c12.031189,-0.500427 22,-1 31,-1c8,0 14.585785,-1.414215 16,0c0.707092,0.707092 -0.053497,1.540497 -2,2c-2.176239,0.513733 -3.549164,1.95517 -7,3c-3.828369,1.159149 -10.020447,-0.494873 -16,0c-6.062042,0.501709 -12.160492,-0.37851 -18,1c-4.352509,1.027496 -7,2 -7,3c0,3 9,0 17,0c11,0 21.699127,-1.486603 33,-3c10.902679,-1.460052 22,0 26,0c1,0 0.192841,0.358154 -7,4c-8.786774,4.448853 -23,8 -37,12c-14,4 -29.893433,6.997467 -44,8c-17.954712,1.276001 -27,0 -33,0c-2,0 -3,0 -3,-2c0,-1 0.702667,-2.541351 4,-4c3.770645,-1.66803 8.907791,-1.496216 13,-2c3.970032,-0.488739 7.171631,1.159149 11,0c3.450836,-1.04483 4,-2 6,-2c1,0 0.079651,0.167969 -4,2c-4.912567,2.206055 -15,3 -29,3c-16,0 -29.036713,0.819397 -48,2c-16.093353,1.001923 -27,2 -32,2c-2,0 -3.114685,-0.129669 -2,-1c4.595993,-3.58844 11.027252,-4.340149 19,-5c6.062042,-0.501709 12,-1 18,-1c5,0 9,0 10,0c1,0 -0.3806,-1.913422 -5,0c-2.613129,1.082397 -8.74707,3.617004 -13,5c-5.784607,1.881073 -15.215393,2.118927 -21,4c-4.25293,1.382996 -8.693436,3.541199 -10,3c-0.923874,-0.38269 3.558197,-3.519287 7,-6c1.813995,-1.307465 6.884964,-3.274323 9,-4c4.823029,-1.654816 8.080307,-2.376404 12,-4c1.847763,-0.765381 5,1 5,0c0,-3 -6.549149,0.95517 -10,2c-4.785461,1.448914 -7,0 -10,0c-1,0 -1,-2 -1,-3c0,-1 -4,-1 -12,-1c-8,0 -11.712006,0.981628 -17,2c-1.963913,0.378204 -3,0 1,0c3,0 5,1 5,0c0,-3 -8.937958,0.498291 -15,1c-10.962517,0.907288 -16.815575,0.992462 -25,2c-3.970032,0.488739 -7.707108,0.707092 -7,0c2.121323,-2.121307 3.085815,-0.420441 5,-1c3.450844,-1.04483 5.878555,-2.493469 9,-3c3.948349,-0.640717 8.304482,1.530731 12,0c1.306564,-0.541199 -2.571205,0.007446 -11,3c-8.688202,3.084656 -17.985596,5.080933 -29,7c-11.98497,2.088165 -17.647499,2.972504 -22,4c-0.973248,0.229767 -1.191662,-5.345459 4,-8c6.7808,-3.467102 10.814018,-6.54895 16,-8c5.85778,-1.639038 9.757111,-1.986908 16,-3c4.93544,-0.800903 9,-1 13,-1c1,0 -1,0 -6,0c-6,0 -14.070786,-1.061859 -22,0c-11.300873,1.513397 -19.835506,4.993988 -29,6c-7.952232,0.872925 -13.461647,1.152832 -11,-2c2.537411,-3.249847 7.881523,-3.190277 11,-5c3.867996,-2.24469 12.907784,-5.496216 17,-6c4.96254,-0.610931 7,-2 6,-2c-4,0 -9,2 -11,2c-3,0 -4,1 -4,0c0,-1 0.186008,-3.692535 2,-5c1.14727,-0.826904 1.292892,-1.292908 2,-2c0.707108,-0.707092 -2.076893,1.731445 -6,3c-5.123947,1.65686 -6.925797,3.497559 -12,4c-1.990265,0.197083 -3,0 -3,3c0,2 -2,2 -2,3c0,2 -0.693436,3.458801 -2,4c-1.847759,0.765381 -2.292892,0.292908 -3,1c-0.707108,0.707092 0.447212,2.10556 0,3c-2.236069,4.472137 -9.572241,4.266479 -21,9c-5.387097,2.231415 -5.693437,3.458801 -7,4c-0.92388,0.38269 -2,-1 -2,-2c0,-3 -1.57994,-4.783813 1,-8c1.399169,-1.744232 1.292893,-2.292908 2,-3c0.707107,-0.707092 1,1 1,4c0,2 0.17625,6.486267 -2,7c-0.973249,0.229767 -2,0 -2,-1c0,-3 0.415895,-4.761078 2,-8c1.389351,-2.840729 2.206809,-3.812653 4,-6c2.285879,-2.78833 7.15395,-7.051331 10,-8c4.743416,-1.581146 11,-6 12,-6c3,0 4.496227,4.907776 5,9c0.36655,2.977509 2.038906,7.077484 3,13c1.519623,9.364319 1.585785,11.585785 3,13c0.707108,0.707092 5,-2 12,-7c7,-5 16.090202,-8.696808 30,-13c12.084061,-3.738373 36,-6 50,-6c8,0 16.257446,-1.738708 22,0c3.450851,1.04483 4.076126,1.61731 5,2c1.306564,0.541199 5,2 14,2c5,0 8.414215,0.585785 7,2c-0.707108,0.707092 -8,-3 -14,-3c-6,0 -9,0 -10,0c-1,0 -0.460236,1.468719 7,3c9.795776,2.010651 24,0 37,0c14,0 48,4 48,0c0,-3 -8.699127,-1.486603 -20,-3c-39.646072,-5.309326 -51,0 -64,0c-6,0 -9,0 -5,0c8,0 20.973221,-0.999847 77,-2c20.996643,-0.374817 43,0 61,0c16,0 36.025208,2.881348 41,4c4.022644,0.904572 2,3 -4,3c-8,0 -32,0 -46,0c-16,0 -40.315399,-1.564697 -49,1c-4.289017,1.266602 -1,2 9,2c11,0 42.761841,-1.491608 57,-3c15.91095,-1.685608 27,0 38,0c6,0 6,1 -2,3c-8,2 -19.989441,3.069916 -33,5c-13.989044,2.075226 -49,-3 -49,2c0,5 15,0 29,0c43,0 54,0 60,0c2,0 2.707092,-0.707092 2,0c-1.414215,1.414215 -1,3 0,3c1,0 1.01947,0.605835 5,1c5.074219,0.502441 9.292908,3.707092 10,3c1.414215,-1.414215 -4.222076,-2.85614 -9,-7c-1.68924,-1.465088 -2.458801,-1.693451 -3,-3c-0.38269,-0.923889 2.698822,-4.450531 7,-7c10.394257,-6.161102 15.309998,-6.337494 18,-8c3.609009,-2.230499 4.707092,-3.292908 4,-4c-0.707092,-0.707092 -4,0 -5,0c-1,0 -1.705475,0.346191 -4,2c-5.441986,3.922363 -27.407898,15.955231 -35,20c-7.540619,4.017334 -6.264099,0.507843 -1,-2c21.133636,-10.068207 28,-8 40,-8c6,0 12,2 18,5c2,1 4.229767,4.026764 4,5c-0.513733,2.176239 -4.289124,2.048676 -9,4c-3.331085,1.379791 -5.893005,3.919006 -2,3c4.352509,-1.027496 9.020111,-1.432892 17,-2c14.106567,-1.002533 20,-3 35,-3c1,0 6.010071,-1.716431 10,-2c7.053284,-0.501251 21,-1 21,-3c0,-1 -7,0 -15,0c-20,0 -21.985016,0.244354 -20,0c4.092224,-0.503784 11.977966,-3.499786 29,-4c4.997833,-0.146881 20.647491,-0.972504 25,-2c4.866241,-1.148773 0,0 -8,0c-9,0 -23.200989,0.540009 -29,-1c-7.792175,-2.069336 -8.123108,-6.876892 -4,-11c4.123108,-4.123108 11.076904,-5.731445 15,-7c5.123962,-1.65686 20.027252,-3.659851 28,-3c12.124084,1.003418 21.240417,0.217163 30,11c1.993896,2.454437 2.707092,3.292908 2,4c-9.192383,9.192383 -21,0 -54,0c-4,0 -6.996185,1.087219 -6,1c34.393768,-3.011475 54.733582,-8.493683 90,-11c15.959778,-1.134216 50.056274,-1.763336 51,0c1.701294,3.178925 -5.971558,5.161926 -34,10c-11.98822,2.069336 -25,5 -20,5c8,0 33,0 46,0c23,0 26.32489,-0.376373 26,1c-0.726563,3.077698 -10.71991,5.994202 -59,9c-5.988403,0.372833 -11.994019,0.109131 -11,0c9.16449,-1.006012 14.928772,-1.001129 36,0c7.990967,0.379669 24,1 28,1c2,0 0,0 -4,0c-15,0 -20.470154,0.735077 -23,2c-6.324585,3.162292 -9,1 -10,1c-1,0 -2.008545,0.707397 -7,1c-17.087891,1.001709 -27.864807,2.995941 -39,4c-14.939392,1.347076 -14,0 -3,-2c11,-2 33,-2 41,-2c6,0 14,0 10,0c-10,0 -32,0 -43,0c-37,0 -46,3 -53,3c-1,0 -0.25119,-0.806213 5,-2c29.318542,-6.665161 41,-4 62,-4c1,0 -4.699158,1.486603 -16,3c-19.823059,2.654663 -26,0 -29,0l1,0l3,0l4,0" id="svg_18" stroke-linecap="null" stroke-linejoin="null" stroke-width="5" stroke="#000000" fill="none"/>
  <line id="svg_21" y2="463" x2="132" y1="466" x1="133" stroke-linecap="null" stroke-linejoin="null" stroke-width="5" stroke="null" fill="none"/>
  <line id="svg_22" y2="470" x2="186" y1="470" x1="183" stroke-linecap="null" stroke-linejoin="null" stroke-width="5" stroke="null" fill="none"/>
  <path d="m109,460c2,0 12,0 23,0c11,0 22,0 38,0c11,0 22,0 28,0l2,0l1,0" id="svg_23" stroke-linecap="null" stroke-linejoin="null" stroke-width="5" stroke="null" fill="none"/>
  <polyline id="svg_24" points="300,458 300,458 " stroke-linecap="round" stroke-linejoin="null" stroke-width="5" stroke="null" fill="none"/>
  <path d="m128,273c5,0 15.107712,3.234009 32,6c19.161316,3.137512 40.03244,6.642883 64,9c97.153015,9.554565 112.864838,11.995941 124,13c5.975769,0.538818 10,0 13,0c1,0 2,0 4,0c5,0 8.647491,-0.972504 13,-2c5.839508,-1.37851 10.471252,-3.458771 17,-5c2.919739,-0.68927 7,-1 10,-3l1,-1l1,0" id="svg_25" stroke-linecap="null" stroke-linejoin="null" stroke-width="5" stroke="null" fill="none"/>
  <path d="m345,308c5,10 11.855682,17.0979 18,26c4.886505,7.079712 12.743225,19.210938 21,29c7.763763,9.204559 14.739075,17.238861 23,26c6.791351,7.202606 12.164825,10.679352 18,17c3.955292,4.284363 6.389038,8.655914 9,12c3.58844,4.595978 6.062714,9.83197 9,14c3.358917,4.766296 13,14 14,15l1,1l0,1" id="svg_27" stroke-linecap="null" stroke-linejoin="null" stroke-width="5" stroke="null" fill="none"/>
  <path d="m136,464c2,0 14,0 32,0c22,0 39.801132,-2.49649 87,-5c5.991577,-0.31781 8,1 8,0c0,-1 -9,0 -18,0c-6,0 -16.914185,-0.579559 -15,0c3.450851,1.04483 9.086227,3.551392 23,2c31.584778,-3.521698 44.198456,-8.766296 55,-16c1.175049,-0.786926 3,-1 3,1c0,2 -1.855591,4.349182 -7,12c-1.764526,2.624207 -4.647491,4.972504 -9,6c-3.893005,0.919006 -27,0 -31,0c-2,0 -1,0 2,0c2,0 8,0 29,0c14,0 38,0 44,0c4,0 1.813995,0.692535 0,2c-3.441803,2.480713 -3.693451,3.458801 -5,4c-1.847748,0.765381 0.051636,-0.640717 4,0c6.242889,1.013092 11,2 23,2c7,0 17.824432,-2.0979 19,-4c0.525726,-0.850647 -2,-1 -3,-1c-1,0 -5.010284,-0.351135 -11,0c-17.087921,1.001709 -59,0 -59,6c0,3 -3.958466,0.499237 -13,1c-7.987762,0.442413 -32,2 -37,2c-1,0 4.025818,-1.679626 6,-2c3.121429,-0.506531 6.770233,-0.026764 7,-1c0.513733,-2.176239 -4.007507,-0.877808 -5,-1c-4.092224,-0.503784 -5.513733,-0.823761 -5,-3c0.229767,-0.973236 -4,-1 -15,-1c-8,0 -10,-1 -8,-1l1,0" id="svg_28" stroke-linecap="null" stroke-linejoin="null" stroke-width="5" stroke="#ffff00" fill="none"/>
  <path d="m592,413c1,0 1.707092,3.292908 1,4c-0.707092,0.707092 -2,1 -3,1c-1,0 -3,0 -4,0c-1,0 -3,0 -6,0c-1,0 -2,0 -3,0c-1,0 -2.769348,0.303223 -4,1c-3.587952,2.031464 -7.711975,4.981628 -13,6c-3.927795,0.756439 -9,1 -9,0c0,-2 0.134644,-3.811462 3,-6c2.513062,-1.919495 6.549133,-2.95517 10,-4c3.828369,-1.159149 14,-1 19,-1c1,0 3,0 6,0c1,0 1.38269,1.076111 1,2c-1.082397,2.613129 -4.159851,2.745789 -9,4c-9.966431,2.582581 -13,6 -14,6c-1,0 1.647522,-0.972504 6,-2c5.839478,-1.37851 9,0 11,0c1,0 0,2 -3,3c-6,2 -10.029175,1.408783 -16,2c-5.074219,0.502441 -11.878662,3.121307 -14,1c-0.707092,-0.707092 4,-1 9,-1c8,0 16,-2 19,-2c1,0 0,0 -3,-1c-3,-1 -6,-3 -8,-4l-3,-1l-1,0l-1,-2" id="svg_29" stroke-linecap="null" stroke-linejoin="null" stroke-width="5" stroke="#ffff00" fill="#000000"/>
  <path transform="rotate(-49.32317352294922 138.02047729492188,412.6600036621094) " id="svg_30" d="m122.587502,405.613007l30.865959,0m-15.362701,13.248047l15.080948,14.79895m-15.080948,-14.939941l-14.093987,14.939941m14.023888,-32.557434l0,17.617493m4.685013,-22.375305c0,2.58783 -2.097565,4.684753 -4.685013,4.684753c-2.58757,0 -4.685516,-2.096924 -4.685516,-4.684753c0,-2.58783 2.097946,-4.684753 4.685516,-4.684753c2.587448,0 4.685013,2.096924 4.685013,4.684753z" stroke-linecap="null" stroke-linejoin="null" stroke-width="5" stroke="#000000" fill="#ff0000"/>
  <ellipse transform="rotate(-59.47029495239258 42.499999999999986,418) " ry="25.24074" rx="51.93527" id="svg_32" cy="418" cx="42.500001" stroke-linecap="null" stroke-linejoin="null" stroke-width="5" stroke="#000000" fill="#ff0000"/>
  <line id="svg_33" y2="456" x2="40" y1="431" x1="11" stroke-linecap="null" stroke-linejoin="null" stroke-width="5" stroke="#000000" fill="none"/>
  <line id="svg_34" y2="444" x2="55" y1="412" x1="16" stroke-linecap="null" stroke-linejoin="null" stroke-width="5" stroke="#000000" fill="none"/>
  <line id="svg_35" y2="410" x2="74" y1="383" x1="41" stroke-linecap="null" stroke-linejoin="null" stroke-width="5" stroke="#000000" fill="none"/>
  <line id="svg_36" y2="428" x2="62" y1="401" x1="26" stroke-linecap="null" stroke-linejoin="null" stroke-width="5" stroke="#000000" fill="none"/>
  <line id="svg_37" y2="410" x2="126" y1="395" x1="78" stroke-linecap="null" stroke-linejoin="null" stroke-width="5" stroke="#000000" fill="none"/>
  <line id="svg_38" y2="415" x2="139" y1="422" x1="72" stroke-linecap="null" stroke-linejoin="null" stroke-width="5" stroke="#000000" fill="none"/>
  <line id="svg_39" y2="420" x2="133" y1="453" x1="46" stroke-linecap="null" stroke-linejoin="null" stroke-width="5" stroke="#000000" fill="none"/>
  <path d="m147,429c0,0 0,2 0,4c0,2 0,3 0,5c0,1 0.292892,0.707092 1,0c0.707108,-0.707092 1,-1 1,-3c0,-1 0.613129,-2.917603 -2,-4c-1.847763,-0.765381 -2.414215,-1.414215 -1,0c0.707108,0.707092 4,4 5,5c2,2 2.692551,3.186005 4,5c0.826904,1.147278 0.923874,3.38269 0,3c-2.613129,-1.082397 -10,-8 -11,-9c-1,-1 -4,-2 -5,-3c-3,-3 -4.458801,-5.693451 -5,-7c-0.38269,-0.923889 0.662506,-2.309998 -1,-5c-0.7435,-1.203003 -3,-3 -4,-4c-1,-1 -1,-3 -1,-1c0,1 -0.289787,2.042908 0,3c1.04483,3.450836 2,4 3,5l0,1" id="svg_40" stroke-linecap="null" stroke-linejoin="null" stroke-width="5" stroke="#ff0000" fill="#ff0000"/>
 </g>
</svg>