<svg width="640" height="480" xmlns="http://www.w3.org/2000/svg">

 <g>
  <title>Layer 1</title>
  <path id="svg_1" d="m13.970001,183.986176l229.260605,0l70.840225,-173.033936l70.848602,173.033936l229.260437,0l-185.479065,106.932159l70.849243,173.033905l-185.479218,-106.939148l-185.470535,106.939148l70.840164,-173.033905l-185.470459,-106.932159l0,0z" stroke-width="5" stroke="#000000" fill="#FF0000"/>
  <path transform="rotate(33.18970489501953 321.144989013672,249.94084167480466) " id="svg_2" d="m104.364883,203.434494l165.615036,0l51.16507,-150.485886l51.16507,150.485886l165.615051,0l-133.979218,93.006393l51.178345,150.492188l-133.979248,-93.00647l-133.979233,93.00647l51.178314,-150.492188l-133.979187,-93.006393z" stroke-width="5" stroke="#000000" fill="#ff7f00"/>
  <path id="svg_4" d="m227,243.688431l61.999573,0l19.158325,-54.239212l19.158325,54.239212l61.999573,0l-50.1586,33.521591l19.159302,54.239197l-50.1586,-33.522247l-50.158569,33.522247l19.159241,-54.239197l-50.158569,-33.521591z" stroke-linecap="null" stroke-linejoin="null" stroke-width="5" stroke="#000000" fill="#FF0000"/>
  <path transform="rotate(-44.48460388183594 303.50747680664074,265.05224609375) " id="svg_6" d="m255.098053,254.564178l36.98172,0l11.427032,-33.940964l11.428375,33.940964l36.98175,0l-29.918579,20.976166l11.427948,33.940948l-29.919495,-20.977081l-29.918091,20.977081l11.427948,-33.940948l-29.91861,-20.976166z" stroke-linecap="null" stroke-linejoin="null" stroke-width="5" stroke="#000000" fill="#ffff00"/>
 </g>
</svg>