<svg width="640" height="480" xmlns="http://www.w3.org/2000/svg" xmlns:xlink="http://www.w3.org/1999/xlink">
 <!-- Created with SVG-edit - http://svg-edit.googlecode.com/ -->
 <defs>
  <svg viewBox="0 0 500 500" height="500px" width="500px" y="0px" x="0px" id="svg_1" xmlns:xlink="http://www.w3.org/1999/xlink">
   <g>
    <path d="m271.200012,1c2.200012,0.2 4.399994,0.4 6.600006,0.6c-2.200012,-0.2 -4.400024,-0.4 -6.600006,-0.6z" fill="#E9EBED"/>
    <path d="m210.5,3.2c3,-0.5 6,-0.9 9,-1.3c-3,0.4 -6,0.8 -9,1.3z" fill="#E9EBED"/>
    <path d="m230,0.9c2.899994,-0.2 5.899994,-0.4 8.899994,-0.5c-3,0.1 -5.899994,0.2 -8.899994,0.5z" fill="#E9EBED"/>
    <path d="m191.399994,7c3.099991,-0.7 6.199997,-1.4 9.300003,-2c-3.199997,0.6 -6.300003,1.3 -9.300003,2z" fill="#E9EBED"/>
    <path d="m200.699997,4.9c3,-0.6 6.100006,-1.1 9.100006,-1.6c-3,0.5 -6.100006,1 -9.100006,1.6z" fill="#E9EBED"/>
    <path d="m260.899994,0.4c2.799988,0.1 5.699982,0.3 8.5,0.5c-2.899994,-0.3 -5.699982,-0.4 -8.5,-0.5z" fill="#E9EBED"/>
    <path d="m240.800003,0.3c3,-0.1 6,-0.2 9,-0.2c-3,0 -6,0.1 -9,0.2z" fill="#E9EBED"/>
    <path d="m249.800003,0.1c3,0 5.899994,0.1 8.900009,0.2c-3.000015,-0.1 -5.900009,-0.2 -8.900009,-0.2z" fill="#E9EBED"/>
    <path d="m220.800003,1.8c2.800003,-0.3 5.599991,-0.6 8.5,-0.8c-2.900009,0.2 -5.699997,0.5 -8.5,0.8z" fill="#E9EBED"/>
    <path d="m123.900002,34.099998c1,-0.599998 2,-1.199997 3.099998,-1.799999c-1.099998,0.600002 -2.099998,1.200001 -3.099998,1.799999z" fill="#E9EBED"/>
    <path d="m100.199997,49.799999c0.100006,-0.099998 0.200005,-0.099998 0.200005,-0.200001c0,0.100002 -0.099998,0.200001 -0.200005,0.200001z" fill="#E9EBED"/>
    <path d="m90.099998,57.799999c0.900002,-0.799999 1.800003,-1.5 2.700005,-2.200001c-0.900002,0.700001 -1.800003,1.5 -2.700005,2.200001z" fill="#E9EBED"/>
    <path d="m130.300003,30.5c2.199997,-1.200001 4.300003,-2.299999 6.5,-3.4c-2.199997,1.1 -4.400009,2.199999 -6.5,3.4z" fill="#E9EBED"/>
    <path d="m155.199997,18.700001c5.699997,-2.300001 11.5,-4.400001 17.300003,-6.400001c-5.899994,1.9 -11.699997,3.999999 -17.300003,6.400001z" fill="#E9EBED"/>
    <path d="m172.800003,12.2c5.899994,-1.9 12,-3.599999 18.099991,-5.1c-6.099991,1.5 -12.099991,3.2 -18.099991,5.1z" fill="#E9EBED"/>
    <path d="m138.699997,26.1c2.199997,-1.1 4.5,-2.200001 6.800003,-3.200001c-2.300003,1 -4.600006,2.1 -6.800003,3.200001z" fill="#E9EBED"/>
    <path d="m146.300003,22.5c2.699997,-1.200001 5.399994,-2.4 8.199997,-3.5c-2.800003,1.1 -5.5,2.299999 -8.199997,3.5z" fill="#E9EBED"/>
    <path d="m465.5,123.900002c2.799988,4.700005 5.399994,9.599998 7.799988,14.499992c-2.399994,-5 -5,-9.799988 -7.799988,-14.499992z" fill="#E9EBED"/>
    <path d="m179.600006,117.5c-9.099991,-0.300003 -18,-0.599998 -26.800003,-1c8.800003,0.400002 17.699997,0.699997 26.800003,1z" fill="#E9EBED"/>
    <path d="m57.5,90.400002c2,-2.400002 4,-4.700005 6.099998,-7.099998c-2,2.399994 -4.099998,4.699997 -6.099998,7.099998z" fill="#E9EBED"/>
    <path d="m114.099998,114.400002c-8.299995,-0.5 -16.5,-1.099998 -24.5,-1.700005c8,0.600006 16.200005,1.200005 24.5,1.700005z" fill="#E9EBED"/>
    <path d="m482.200012,158c0.100006,0.300003 0.299988,0.699997 0.399994,1c-0.200012,-0.300003 -0.300018,-0.600006 -0.399994,-1z" fill="#E9EBED"/>
    <path d="m43.900002,108.5c0,0 0,0 0,0c14.5,1.599998 29.699997,3 45.699997,4.199997c-16,-1.199997 -31.299999,-2.599998 -45.699997,-4.199997z" fill="#E9EBED"/>
    <path d="m351.200012,387.700012c13.799988,-0.600006 27.200012,-1.399994 40.100006,-2.200012c-13.000031,0.799988 -26.400024,1.600006 -40.100006,2.200012z" fill="#E9EBED"/>
    <path d="m249.899994,322.200012c-94.400009,0 -180.000008,-5.700012 -243.199994,-14.700012c-2.7,-11.399994 -4.6,-23.099976 -5.7,-35c1.1,11.900024 3,23.600006 5.7,35c63.200002,9 148.699994,14.700012 243.199994,14.700012c-0.099991,0 0,0 0,0z" fill="#E9EBED"/>
    <path d="m478.899994,150.199997c0.5,1 0.899994,2.100006 1.399994,3.100006c-0.5,-1 -0.899994,-2 -1.399994,-3.100006z" fill="#E9EBED"/>
    <path d="m474.299988,140.199997c0.899994,1.900009 1.799988,3.800003 2.700012,5.699997c-0.899994,-2 -1.799988,-3.899994 -2.700012,-5.699997z" fill="#E9EBED"/>
    <path d="m452.5,103.900002c0.5,0.599998 0.899994,1.299995 1.399994,1.900002c-0.399994,-0.600006 -0.899994,-1.200005 -1.399994,-1.900002z" fill="#E9EBED"/>
    <path d="m408.5,57c0.100006,0.099998 0.200012,0.200001 0.299988,0.200001c-0.099976,-0.100002 -0.199982,-0.200001 -0.299988,-0.200001z" fill="#E9EBED"/>
    <path d="m446.100006,95.400002c0.100006,0.199997 0.300018,0.299995 0.399994,0.5c-0.100006,-0.200005 -0.299988,-0.300003 -0.399994,-0.5z" fill="#E9EBED"/>
    <path d="m311.899994,7.9c0.299988,0.1 0.600006,0.1 0.799988,0.2c-0.199982,-0.1 -0.499969,-0.1 -0.799988,-0.2z" fill="#E9EBED"/>
    <path d="m80.900002,65.900002c1.900002,-1.700005 3.799995,-3.400002 5.699997,-5.100002c-1.900002,1.700001 -3.799995,3.299999 -5.699997,5.100002z" fill="#E9EBED"/>
    <path d="m458.200012,112.199997c0.700012,1.100006 1.399994,2.200005 2.100006,3.300003c-0.600006,-1.099998 -1.300018,-2.199997 -2.100006,-3.300003z" fill="#E9EBED"/>
    <path d="m280.799988,2c2.399994,0.3 4.899994,0.6 7.299988,1c-2.399963,-0.3 -4.799988,-0.7 -7.299988,-1z" fill="#E9EBED"/>
    <path d="m461.399994,117c1.299988,2 2.5,4 3.699982,6.099998c-1.299988,-2.099998 -2.499969,-4.099998 -3.699982,-6.099998z" fill="#E9EBED"/>
    <path d="m292,3.7c1.299988,0.2 2.600006,0.5 3.899994,0.7c-1.299988,-0.3 -2.600006,-0.5 -3.899994,-0.7z" fill="#E9EBED"/>
    <path d="m45.400002,106.300003c1.399998,-2 2.799999,-3.900002 4.199997,-5.800003c-1.399998,1.900002 -2.799999,3.800003 -4.199997,5.800003z" fill="#E9EBED"/>
    <polygon points="0,249.9 0,249.9 0,249.9  " fill="#E9EBED"/>
    <path d="m0.4,264.100006c-0.1,-1.799988 -0.2,-3.600006 -0.2,-5.5c0,1.899994 0.1,3.699982 0.2,5.5z" fill="#E9EBED"/>
    <path d="m0.1,256.899994c-0.1,-2.300003 -0.1,-4.699997 -0.1,-7c0,2.400009 0,4.700012 0.1,7z" fill="#E9EBED"/>
    <path d="m36,120.599998c0.099998,-0.199997 0.299999,-0.5 0.400002,-0.699997c-0.100002,0.299995 -0.300003,0.5 -0.400002,0.699997z" fill="#E9EBED"/>
    <path d="m19.6,152.699997c0,0 0,0 0,0c0,0 0,0 0,0z" fill="#E9EBED"/>
    <path d="m27.200001,136.5c0.199999,-0.300003 0.299999,-0.600006 0.5,-1c-0.200001,0.300003 -0.400002,0.699997 -0.5,1z" fill="#E9EBED"/>
    <path d="m24.6,141.699997c0,0 0,-0.099991 0,-0.099991c0,0 0,0 0,0.099991z" fill="#E9EBED"/>
    <path d="m51.400002,98.099998c1.699997,-2.199997 3.399998,-4.400002 5.199997,-6.5c-1.699997,2.099998 -3.5,4.300003 -5.199997,6.5z" fill="#E9EBED"/>
    <path d="m72.400002,74c2,-2 4.099998,-4 6.199997,-6c-2.099998,2 -4.099998,4 -6.199997,6z" fill="#E9EBED"/>
    <path d="m64.599998,82.300003c2.099998,-2.300003 4.200005,-4.600006 6.400002,-6.800003c-2.199997,2.300003 -4.400002,4.5 -6.400002,6.800003z" fill="#E9EBED"/>
    <path d="m0.9,271.5c-0.2,-1.899994 -0.3,-3.899994 -0.4,-5.899994c0.1,2 0.3,4 0.4,5.899994z" fill="#E9EBED"/>
    <path d="m249.800003,457.899994c-51.900009,0 -101.100006,-1.800018 -145.399994,-4.700012c41,29.300018 91.100006,46.700012 145.399994,46.700012c54.300003,0 104.400009,-17.200012 145.400009,-46.700012c-44.300018,2.900024 -93.5,4.700012 -145.400009,4.700012z" fill="#E56454"/>
    <path d="m156.800003,48.799999c11.899994,0.5 24,0.900002 36.300003,1.200001c18.5,0.5 37.399994,0.700001 56.699997,0.700001c51.599991,0 100.499985,-1.799999 144.499985,-4.700001c-24.299988,-17.299999 -51.899994,-30.3 -81.599976,-38c-0.300018,-0.1 -0.600006,-0.1 -0.800018,-0.2c-5.299988,-1.3 -10.600006,-2.5 -16,-3.5c-1.299988,-0.2 -2.600006,-0.5 -3.899994,-0.7c-1.299988,-0.2 -2.600006,-0.4 -3.899994,-0.6c-2.399994,-0.4 -4.899994,-0.7 -7.300018,-1c-1,-0.1 -2,-0.2 -3,-0.3c-2.199982,-0.2 -4.399994,-0.5 -6.599976,-0.6c-0.600006,-0.1 -1.300018,-0.1 -1.900024,-0.2c-2.799988,-0.2 -5.599976,-0.4 -8.5,-0.5c-0.699982,0 -1.5,-0.1 -2.199982,-0.1c-2.900009,-0.1 -5.900009,-0.2 -8.900009,-0.2c-3,0 -6,0.1 -9,0.2c-0.699997,0 -1.300003,0 -2,0.1c-3,0.1 -5.899994,0.3 -8.899994,0.5c-0.300003,0 -0.5,0 -0.800003,0.1c-2.800003,0.2 -5.699997,0.5 -8.5,0.8c-0.399994,0 -0.800003,0.1 -1.300003,0.1c-3,0.4 -6,0.8 -9,1.3c-0.199997,0 -0.399994,0.1 -0.699997,0.1c-3.099991,0.5 -6.099991,1 -9.100006,1.6c0,0 -0.099991,0 -0.099991,0c-3.100006,0.6 -6.199997,1.3 -9.300003,2c-0.100006,0 -0.300003,0.1 -0.399994,0.1c-6.100006,1.5 -12.200012,3.2 -18.100006,5.1c-0.100006,0 -0.199997,0.099999 -0.300003,0.099999c-5.899994,1.900001 -11.699997,4.000001 -17.300003,6.400001c-0.199997,0.1 -0.5,0.199999 -0.699997,0.299999c-2.800003,1.1 -5.5,2.300001 -8.199997,3.5c-0.300003,0.1 -0.5,0.200001 -0.800003,0.4c-2.300003,1 -4.5,2.1 -6.800003,3.200001c-0.599991,0.299999 -1.299988,0.6 -1.899994,0.9c-2.199997,1.1 -4.399994,2.300001 -6.5,3.4c-1.100006,0.6 -2.199997,1.200001 -3.300003,1.799999c-1,0.600002 -2.099998,1.200001 -3.099998,1.800003c-6.400002,3.699997 -12.599998,7.699997 -18.599998,11.899998c16.800003,1.400002 34.100006,2.299999 51.800003,3z" fill="#EB887C"/>
    <path d="m391.299988,385.5c-13,0.899994 -26.399994,1.600006 -40.100006,2.200012c-21.299988,1 -43.399994,1.599976 -66.199982,2c-43.900009,9.099976 -56.800003,28.599976 -105.100006,28.599976c-41.400009,0.200012 -60.500008,-20.799988 -92.400002,-34.099976c-18.300003,-1.400024 -35.600002,-3.100006 -51.800003,-4.900024c17.5,29.100006 40.800003,54.200012 68.300011,74c0.099998,0 0.199997,0 0.300003,0c44.300003,2.900024 93.5,4.700012 145.399994,4.700012c51.899979,0 101.099991,-1.799988 145.399979,-4.700012c0.100006,0 0.200012,0 0.300018,0c27.5,-19.799988 50.899994,-45 68.299988,-74c-22.099976,2.300018 -46.399994,4.5 -72.399994,6.200012z" fill="#EBDDBB"/>
    <path d="m250,322.200012c0,0 -0.100006,0 0,0c-0.100006,0 -0.199997,0 -0.199997,0c-94.400009,0 -179.899994,-5.700012 -243.100013,-14.700012c-0.1,0 -0.1,0 -0.2,0c6.1,25.5 15.9,49.700012 29.300002,71.700012c16.199997,1.899994 33.499996,3.5 51.799999,4.899994c-0.200005,-0.100006 -0.400002,-0.199982 -0.5,-0.199982c42,-5.5 45.800003,-26.5 92.899994,-26.5c47.100006,0 64.200012,24 105.699997,32.199982c-0.199982,0 -0.399994,0.100006 -0.5,0.100006c22.700012,-0.299988 44.899994,-1 66.200012,-2c13.799988,-0.600006 27.199982,-1.399994 40.100006,-2.200012c26,-1.699982 50.299988,-3.799988 72.599976,-6.399994c13.200012,-21.799988 23.200012,-45.899994 29.300018,-71.699982c-63.5,9.299988 -149,14.799988 -243.399994,14.799988z" fill="#EB887C"/>
    <path d="m500,249.899994c0,-3.699997 -0.200012,-7.699997 -0.200012,-11.400009c-0.099976,0 -0.299988,0 -0.399994,0.100006c0,0 0,0.100006 0,0.100006c-63.600006,9.599991 -152,15.5 -249.600006,15.5c-97.599991,0 -185.999996,-5.900009 -249.599998,-15.5c0,-0.100006 0,-0.100006 0,-0.200012c0,0 0,0 0,0c-0.19999,3.700012 -0.19999,7.500015 -0.19999,11.400009c0,0 0,0 0,0v0c0,0 0,0 0,0c0,2.399994 0,4.699997 0.1,7c0,0.600006 0,1.100006 0.1,1.699982c0.1,1.800018 0.1,3.700012 0.2,5.5c0,0.5 0.1,1 0.1,1.5c0.1,2 0.3,3.900024 0.4,5.900024c0,0.299988 0.1,0.599976 0.1,0.899994c1.1,11.899994 3,23.600006 5.7,35c63.200002,9 148.8,14.699982 243.199994,14.699982c0,0 0.100006,0 0.100006,0c94.399994,0 179.899994,-5.5 243.100006,-14.699982c0.100006,0 0.100006,0 0.199982,0c4.300018,-18.399994 6.700012,-37.699982 6.700012,-57.5z" fill="#EBBD7C"/>
    <path d="m249.800003,254.199997c97.599991,0 185.999985,-5.899994 249.600021,-15.5c0,0 0,-0.099991 0,-0.099991c-1,-22.900009 -5.100006,-45.100006 -12,-66c-62.5,8.599991 -145.899994,13.899994 -237.600021,13.899994c-11.5,0 -22.800003,-0.100006 -34,-0.199997c-22.400009,-0.300003 -44.100006,-1 -65,-1.900009c-13.100006,-0.599991 -25.800003,-1.299988 -38.200005,-2.099991c-5,-0.300003 -9.900002,-0.699997 -14.699997,-1c-2.400002,-0.199997 -4.800003,-0.400009 -7.200005,-0.5c-4.799995,-0.400009 -9.5,-0.699997 -14.099998,-1.100006c-23.199997,-2 -44.799999,-4.399994 -64.399999,-7.099991c-6.9,21 -11,43.099991 -12,66c0,0.099991 0,0.099991 0,0.199997c63.599999,9.5 151.999997,15.399994 249.600003,15.399994z" fill="#E8786A"/>
    <path d="m76.599998,179.600006c4.599998,0.400009 9.400002,0.800003 14.099998,1.100006c2.400002,0.199997 4.800003,0.399994 7.200005,0.5c4.799995,0.399994 9.699997,0.699997 14.699997,1c12.400002,0.800003 25.099998,1.5 38.200005,2.099991c20.899994,0.900009 42.599991,1.600006 65,1.900009c11.199997,0.199997 22.5,0.199997 34,0.199997c91.699997,0 175.199997,-5.300003 237.600021,-13.899994c-1.5,-4.600006 -3.100006,-9 -4.900024,-13.5c-0.099976,-0.300003 -0.299988,-0.700012 -0.399994,-1c-0.600006,-1.600006 -1.299988,-3.100006 -1.899994,-4.600006c-0.399994,-1 -0.899994,-2.100006 -1.399994,-3.100006c-0.600006,-1.5 -1.300018,-2.899994 -1.899994,-4.399994c-0.900024,-1.899994 -1.800018,-3.800003 -2.700012,-5.699997c-0.299988,-0.600006 -0.600006,-1.199997 -0.900024,-1.800003c-2.5,-4.899994 -5.099976,-9.699997 -7.799988,-14.5c-0.200012,-0.299995 -0.299988,-0.5 -0.5,-0.799995c-1.200012,-2 -2.399994,-4.100006 -3.700012,-6.100006c-0.299988,-0.5 -0.599976,-1 -1,-1.599998c-0.699982,-1.099998 -1.399994,-2.199997 -2.099976,-3.299995c-0.800018,-1.200005 -1.600006,-2.5 -2.400024,-3.700005c-57.899994,6.300003 -129,10 -205.999985,10c-24.100006,0 -47.5,-0.400002 -70.199997,-1.099998c-9.099991,-0.300003 -18,-0.599998 -26.800003,-1c-13.199997,-0.599998 -26.099991,-1.300003 -38.599991,-2c-8.300003,-0.5 -16.5,-1.099998 -24.5,-1.699997c-16,-1.200005 -31.300003,-2.600006 -45.700001,-4.200005c0,0 0,0 -0.100002,0c-2.599998,3.700005 -5,7.5 -7.299999,11.400002c-0.099998,0.199997 -0.299999,0.5 -0.400002,0.699997c-2.899998,4.800003 -5.699999,9.799995 -8.299999,14.900002c-0.199999,0.300003 -0.299999,0.600006 -0.5,1c-0.9,1.699997 -1.699999,3.399994 -2.5,5.100006c0,0 0,0.099991 0,0.099991c-1.699999,3.600006 -3.4,7.300003 -5,11c0,0 0,0 0,0c-2.699999,6.5 -5.299999,13.100006 -7.499999,19.800003c19.399989,2.799988 40.899989,5.199997 64.199988,7.199997z" fill="#E1CC99"/>
    <path d="m114.099998,114.400002c12.5,0.799995 25.400002,1.5 38.599998,2c8.800003,0.400002 17.800003,0.699997 26.800003,1c22.699997,0.699997 46.199997,1.099998 70.199997,1.099998c76.999985,0 148.099991,-3.699997 205.999985,-10c-0.600006,-0.900002 -1.299988,-1.800003 -1.899994,-2.699997c-0.5,-0.600006 -0.899994,-1.300003 -1.399994,-1.900002c-2,-2.700005 -4,-5.400002 -6,-8c-0.100006,-0.200005 -0.300018,-0.300003 -0.399994,-0.5c-11.100006,-14 -23.600006,-26.800003 -37.300018,-38.200001c-0.100006,-0.100002 -0.199982,-0.200001 -0.299988,-0.200001c-4.600006,-3.799999 -9.300018,-7.400002 -14.100006,-10.900002c-44,2.900002 -92.899994,4.700001 -144.5,4.700001c-19.300003,0 -38.199997,-0.200001 -56.699997,-0.700001c-12.300003,-0.299999 -24.399994,-0.699997 -36.300003,-1.199997c-17.800003,-0.700001 -35,-1.700001 -51.599998,-2.800003c-1.599998,1.200001 -3.199997,2.400002 -4.800003,3.600002c-0.099998,0.099998 -0.199997,0.099998 -0.199997,0.200001c-2.5,1.899998 -5,3.799999 -7.400002,5.799999c-0.900002,0.700001 -1.799995,1.5 -2.699997,2.200001c-1.200005,1 -2.400002,2 -3.5,3c-1.900002,1.699997 -3.800003,3.299995 -5.700005,5.099998c-0.799995,0.699997 -1.599998,1.400002 -2.299995,2.199997c-2.099998,2 -4.099998,4 -6.199989,6c-0.5,0.5 -1,1 -1.5,1.5c-2.200012,2.200005 -4.300011,4.5 -6.400009,6.800003c-0.300003,0.300003 -0.600002,0.699997 -0.900002,1c-2.099991,2.300003 -4.099991,4.699997 -6.099991,7.099998c-0.300011,0.400002 -0.60001,0.800003 -0.900009,1.099998c-1.799992,2.100006 -3.5,4.300003 -5.199989,6.5c-0.600002,0.800003 -1.200001,1.600006 -1.800003,2.400002c-1.399998,1.900002 -2.799999,3.900002 -4.199997,5.800003c-0.5,0.799995 -1.100002,1.5 -1.600002,2.299995c0,0 0,0 0.100002,0c14.5,1.600006 29.699997,3 45.699997,4.200005c8,0.400002 16.200005,1 24.5,1.5z" fill="#EBDDD5"/>
    <path d="m285,389.700012c0.200012,0 0.399994,-0.100006 0.5,-0.100006c-41.399994,-8.199982 -58.5,-32.199982 -105.699997,-32.199982c-47.100006,0 -50.900009,21 -92.900002,26.5c0.199997,0.099976 0.400002,0.199982 0.5,0.199982c31.900002,13.399994 50.999992,34.300018 92.400002,34.100006c48.399994,0 61.300003,-19.5 105.199997,-28.5z" fill="#E8786A"/>
   </g>
  </svg>
 </defs>
 <g>
  <title>Layer 1</title>
  <use transform="matrix(0.3199999928474426,0,0,0.3199999928474426,0,0) " id="svg_2" xlink:href="#svg_1"/>
 </g>
</svg>