<svg width="640" height="480" xmlns="http://www.w3.org/2000/svg" xmlns:xlink="http://www.w3.org/1999/xlink">

 <defs>
  <svg viewBox="0 0 500 500" height="500px" width="500px" y="0px" x="0px" id="svg_1" xmlns:xlink="http://www.w3.org/1999/xlink">
   <g>
    <path d="m4.7,298.600006c-0.4,-1.899994 -0.7,-3.799988 -1.1,-5.699982c0.4,1.899963 0.8,3.799988 1.1,5.699982z" fill="#DE0000"/>
    <path d="m498.899994,273.399994c-0.200012,1.799988 -0.399994,3.5 -0.600006,5.299988c0.200012,-1.699982 0.400024,-3.499969 0.600006,-5.299988z" fill="#DE0000"/>
    <path d="m500,250c0,-0.399994 0,-0.800003 0,-1.199997c0,0.5 0,0.899994 0,1.199997c0,0.100006 0,0 0,0z" fill="#DE0000"/>
    <path d="m3.4,291.100006c-0.4,-2.199982 -0.7,-4.299988 -1,-6.5c0.3,2.199982 0.6,4.299988 1,6.5z" fill="#DE0000"/>
    <path d="m500,250.5c0,2.899994 -0.100006,5.799988 -0.200012,8.799988c0.100006,-2.899994 0.200012,-5.899994 0.200012,-8.799988z" fill="#DE0000"/>
    <path d="m437.5,288.5c-7.299988,-31.399994 19.299988,-69.800003 21.200012,-90.399994c2,-20.600006 3.699982,-57.800003 -21.200012,-89.800003c-12.799988,-16.5 -18.5,-31 -19.5,-43.400017c-23.200012,-20.999996 -50.299988,-37.799995 -80.100006,-48.999996c27.899994,15.6 44.399994,39.799999 29.399994,74.900013c-28.5,66.800003 -54.399994,79.599991 -100.399994,82.5c-46,2.899994 -70.199997,35.799988 -77,58.599991c-6.099991,20.199997 -49.5,41.699982 -63.499992,12.399994c-9.800003,-20.199997 7.099998,-47.199997 19.900002,-54.199997c17.699997,-9.800003 35.800003,-24.199997 34.399994,-42.800003c-2,-27.5 -31.399994,-20 -45.199997,-45.799995c-20.900002,-39.200001 -3.399994,-67.800003 26.699997,-85.500002c-34.199997,12.799999 -64.799995,32.999998 -90,58.500002c-25.299995,31.200005 2.800003,46.799995 21.100006,43.099998c41.300003,-8.300003 55.199997,50.899994 12.799995,66.600006c-33.799995,12.599991 -40.299995,45.399994 -35.400002,68.399994c4.900002,22.999985 50.900002,51.499985 52.900002,73.499985c2.200005,24.600006 -25.400002,26.100006 -41.099998,13c-15.699997,-13.399994 -25.400002,5.5 -41.299999,-3.299988c-8,-4.5 -19.200001,-20.200012 -32.099991,-19.299988c2.8,10.099976 6.19999,20 10.199989,29.599976c2.20001,0.800018 19.700012,7 28.799999,15.100006c38.099998,33.800018 43.200005,47.800018 80.599998,60.900024c25.400009,9 33.400009,-13.200012 29.5,-25.700012c-3.899994,-12.600006 8.800003,-28.299988 26.5,-28.299988s42.300003,52.899994 79.599991,62.299988c37.300018,9.399994 54,-20.399994 56,-34c2,-13.600006 -13.799988,-32.399994 0,-49.5c13.800018,-17.100006 32.400024,-2.399994 30.5,11.399994c-2,13.799988 6.900024,32.400024 17.700012,32.400024c10.799988,0 27.899994,-13.200012 34.399994,-29.5c8.800018,-22 28.5,-24.600006 42.300018,-14.700012c9.599976,6.700012 3.399994,28.299988 18.099976,34.5c9.5,-15.5 17.5,-32.200012 23.5,-49.700012c-17,-7.099976 -44.399994,-21.399994 -49.299988,-42.799988zm-124.399994,22c-12.799988,8.5 -42.100006,25.200012 -63.900009,25.200012c-21.799988,0 -48,-17.100006 -62.099991,-25.200012c-28.899994,-16.299988 -8.599991,-57.399994 23.800003,-37.899994c7.899994,4.699982 46.599991,-1.600006 55.800003,-9.399994c39.699982,-33.400009 87.699982,20.199982 46.399994,47.299988zm105.5,-129.300003c-9.399994,18.100006 -5.899994,27.100006 -5.899994,56.199997c0,32 -45.600006,28.899994 -37.700012,-4.899994c2.900024,-12.800003 -3.5,-27.300003 -14.699982,-22.199997c-32.600006,14.899994 -45,-23 -3.700012,-32.400009c29.700012,-6.699997 27.700012,-3.899994 45,-15.699997c19,-13 29.399994,-4.599991 17,19z" fill="#DE0000"/>
    <path d="m497,288.899994c0.200012,-1.200012 0.399994,-2.399994 0.5,-3.600006c-0.200012,1.200012 -0.299988,2.400024 -0.5,3.600006z" fill="#DE0000"/>
    <path d="m499.700012,261.799988c-0.100006,2.700012 -0.299988,5.399994 -0.5,8.100006c0.199982,-2.600006 0.399994,-5.399994 0.5,-8.100006z" fill="#DE0000"/>
    <path d="m0.1,257.799988c0,-2.599991 -0.1,-5.199982 -0.1,-7.799988c0,2.600006 0.1,5.199997 0.1,7.799988z" fill="#DE0000"/>
    <path d="m2.2,283.5c-0.7,-5.200012 -1.2,-10.5 -1.6,-15.799988c0.4,5.299988 0.9,10.599976 1.6,15.799988z" fill="#DE0000"/>
    <path d="m0.5,266c-0.1,-2.100006 -0.2,-4.100006 -0.3,-6.200012c0.1,2.100006 0.2,4.200012 0.3,6.200012z" fill="#DE0000"/>
    <path d="m445,346.299988c-13.799988,-9.799988 -33.399994,-7.299988 -42.299988,14.700012c-6.5,16.299988 -23.600006,29.5 -34.400024,29.5c-10.799988,0 -19.699982,-18.700012 -17.699982,-32.400024c2,-13.799988 -16.700012,-28.5 -30.5,-11.399994c-13.800018,17.100006 2,36 0,49.5c-2,13.600006 -18.700012,43.399994 -56,34c-37.300003,-9.399994 -61.900009,-62.299988 -79.600006,-62.299988s-30.5,15.699982 -26.5,28.299988c3.899994,12.600006 -4.100006,34.800018 -29.5,25.700012c-37.300003,-13.100006 -42.400002,-27 -80.5,-60.899994c-9.200001,-8.100006 -26.6,-14.299988 -28.799999,-15.100006c-0.200001,-0.100006 -0.200001,-0.100006 -0.200001,-0.100006c37.5,90.600006 127,154.300018 231.100006,154.300018c90.199982,0 169.199982,-47.800018 213.199982,-119.300018c-0.099976,0 -0.099976,-0.099976 -0.199982,-0.099976c-14.700012,-6.100006 -8.5,-27.700012 -18.100006,-34.400024z" fill="#BF0000"/>
    <path d="m135.399994,101.400002c13.800003,25.699997 43.199997,18.299995 45.199997,45.799995c1.399994,18.699997 -16.699997,33 -34.399994,42.800003c-12.800003,7.100006 -29.700005,34 -19.900009,54.199997c14,29.300003 57.400009,7.900009 63.5,-12.399994c6.900009,-22.800003 31.100006,-55.600006 77,-58.600006c46,-2.899994 71.900024,-15.699997 100.400024,-82.5c14.899963,-35.099998 -1.600006,-59.299997 -29.400024,-74.899997c-0.299988,-0.2 -0.699982,-0.400001 -1,-0.6c-27.099976,-9.9 -56.299988,-15.4 -86.799988,-15.4c-30.699997,0.2 -60.100006,5.7 -87.300003,15.7c-0.199997,0.1 -0.399994,0.3 -0.599991,0.4c-30.100006,17.699999 -47.600006,46.300001 -26.700012,85.500002zm172.200012,-22.200005c-21.799988,19.5 -77.400009,17.100006 -59.400009,-4.299995c18.099991,-21.400002 4.5,-13.400002 -7.699997,-10.200005c-18.299988,4.700005 -44.199997,6.5 -55,-5.299995c-10.800003,-11.800003 4.100006,-49.100001 64.5,-49.100001c60.299988,-0.1 79.600006,49.600001 57.600006,68.899997z" fill="#BF0000"/>
    <path d="m401.5,162.100006c-17.299988,11.800003 -15.299988,9 -45,15.699997c-41.299988,9.400009 -28.899994,47.400009 3.700012,32.400009c11.199982,-5.100006 17.699982,9.399994 14.699982,22.199997c-7.899994,33.800003 37.700012,36.900009 37.700012,4.899994c0,-29.099991 -3.5,-38.099991 5.899994,-56.199997c12.5,-23.5 2.100006,-31.900009 -17,-19z" fill="#BF0000"/>
    <path d="m250,10.2c-60.300003,0 -75.300003,37.3 -64.5,49.099999c10.800003,11.799999 36.800003,10.000004 55,5.299999c12.199997,-3.099998 25.700012,-11.199997 7.699997,10.200005c-18.099991,21.399994 37.500015,23.799995 59.400009,4.299995c22,-19.199997 2.699982,-68.899999 -57.600006,-68.899999z" fill="#FFA79A"/>
    <path d="m82.400002,339c15.699997,13.200012 43.199997,11.600006 41.099998,-13c-2,-22 -48,-50.5 -52.900002,-73.5c-4.900002,-23 1.599998,-55.800003 35.400002,-68.399994c42.5,-15.700012 28.5,-74.900009 -12.800003,-66.600006c-18.199997,3.699997 -46.399998,-12 -21.099998,-43.099998c0.300003,-0.400002 0.700005,-0.800003 1,-1.300003c-45.199999,45.400002 -73.099998,107.900002 -73.099998,176.900002c0,2.600006 0.1,5.199997 0.1,7.799988c0,0.700012 0.1,1.400024 0.1,2.100006c0.1,2.100006 0.2,4.100006 0.3,6.200012c0,0.600006 0.1,1.100006 0.1,1.699982c0.4,5.300018 0.9,10.600006 1.6,15.800018c0.1,0.399994 0.1,0.799988 0.2,1.199982c0.3,2.200012 0.6,4.300018 1,6.5c0.1,0.600006 0.2,1.200012 0.3,1.800018c0.3,1.899994 0.7,3.799988 1.1,5.699982c1.2,6 2.5,12 4.099999,17.900024c0,0 0.1,0 0.1,0c12.9,-0.900024 24.099998,14.799988 32.099998,19.299988c15.900002,8.5 25.5,-10.299988 41.300003,3z" fill="#FF3A10"/>
    <path d="m266.700012,263.200012c-9.200012,7.899994 -48,14.200012 -55.800003,9.399994c-32.399994,-19.5 -52.699997,21.600006 -23.800003,37.899994c14.199997,8.100006 40.300003,25.200012 62.100006,25.200012c21.799988,0 51.100006,-16.700012 63.899994,-25.200012c41.299988,-27.100006 -6.700012,-80.699997 -46.399994,-47.299988z" fill="#FF3A10"/>
    <path d="m498.299988,278.700012c0.200012,-1.799988 0.399994,-3.5 0.600006,-5.299988c0.100006,-1.200012 0.199982,-2.300018 0.299988,-3.5c0.200012,-2.700012 0.399994,-5.400024 0.5,-8.100006c0,-0.899994 0.100006,-1.700012 0.100006,-2.600006c0.100006,-2.899994 0.200012,-5.800003 0.200012,-8.800003c0,-0.100006 0,-0.199997 0,-0.300003c0,0 0,-0.099991 0,-0.099991c0,-0.400009 0,-0.800003 0,-1.200012c-0.200012,-73.199997 -31.700012,-138.699989 -81.900024,-183.999992c0,0 0,0 0,0c1,12.400002 6.700012,26.900002 19.5,43.400002c25,32 23.200012,69.199997 21.200012,89.800003c-2,20.600006 -28.5,59.000015 -21.200012,90.400009c4.900024,21.399994 32.300018,35.699982 49,42.600006c0,0 0.100006,0 0.100006,0c4.600006,-13.600006 8.100006,-27.700012 10.300018,-42.300018c0.199982,-1.199982 0.399994,-2.399994 0.5,-3.600006c0.299988,-2 0.600006,-4.200012 0.799988,-6.399994z" fill="#FF3A10"/>
   </g>
  </svg>
 </defs>
 <g>
  <title>Layer 1</title>
  <use x="0" y="0" transform="matrix(0.3199999928474426,0,0,0.3199999928474426,0,0) " id="svg_2" xlink:href="#svg_1"/>
 </g>
</svg>