<?xml version="1.0" encoding="utf-8"?>
<!-- Generator: Adobe Illustrator 18.1.0, SVG Export Plug-In . SVG Version: 6.00 Build 0)  -->
<svg version="1.1" id="Layer_1" xmlns="http://www.w3.org/2000/svg" xmlns:xlink="http://www.w3.org/1999/xlink" x="0px" y="0px"
	 viewBox="0 0 960 560" enable-background="new 0 0 960 560" xml:space="preserve">
<linearGradient id="SVGID_1_" gradientUnits="userSpaceOnUse" x1="174.5059" y1="290.972" x2="596.414" y2="290.972" gradientTransform="matrix(0.9281 -0.3725 0.3725 0.9281 -80.6406 164.5005)">
	<stop  offset="0" style="stop-color:#FFFFFF"/>
	<stop  offset="1" style="stop-color:#000000"/>
</linearGradient>
<circle fill="#008740" stroke="url(#SVGID_1_)" stroke-miterlimit="10" cx="385.5" cy="291" r="210.4"/>
<path fill="#009648" d="M175.1,290.5c-0.1,44,13.3,84.8,36.3,118.7c27.2,12.9,57.5,20.1,89.6,20.2c116.2,0.3,210.6-93.7,210.9-209.9
	c0.1-44-13.3-84.8-36.3-118.7c-27.2-12.9-57.5-20.1-89.6-20.2C269.7,80.3,175.3,174.3,175.1,290.5z"/>
<ellipse fill="#0C6B39" cx="325.9" cy="149.4" rx="17.9" ry="27.8"/>
<ellipse fill="#2F8758" cx="330.4" cy="154.3" rx="17.9" ry="27.8"/>
<ellipse fill="#0C6B39" cx="498.8" cy="370.3" rx="25" ry="27.8"/>
<ellipse fill="#2F8758" cx="505" cy="375.2" rx="25" ry="27.8"/>
<ellipse fill="#0C6B39" cx="497.4" cy="246.6" rx="17.9" ry="27.8"/>
<ellipse fill="#2F8758" cx="501.9" cy="251.5" rx="17.9" ry="27.8"/>
<ellipse fill="#0C6B39" cx="245" cy="341.3" rx="19.5" ry="21.5"/>
<ellipse fill="#2F8758" cx="249.8" cy="345.1" rx="19.5" ry="21.5"/>
<ellipse fill="#0C6B39" cx="358.8" cy="267.5" rx="17.9" ry="27.8"/>
<ellipse fill="#2F8758" cx="363.3" cy="272.4" rx="17.9" ry="27.8"/>
<ellipse fill="#0C6B39" cx="414.9" cy="131.3" rx="17.9" ry="27.8"/>
<ellipse fill="#2F8758" cx="419.4" cy="136.2" rx="17.9" ry="27.8"/>
<ellipse fill="#0C6B39" cx="241.5" cy="204.7" rx="9.1" ry="12.2"/>
<ellipse fill="#2F8758" cx="243.7" cy="206.8" rx="9.1" ry="12.2"/>
<ellipse fill="#0C6B39" cx="405" cy="434.3" rx="28.6" ry="34.8"/>
<ellipse fill="#2F8758" cx="412.1" cy="440.4" rx="28.6" ry="34.8"/>
</svg>
