<?xml version="1.0" encoding="utf-8"?>
<!-- Generator: Adobe Illustrator 18.1.0, SVG Export Plug-In . SVG Version: 6.00 Build 0)  -->
<svg version="1.1" id="Layer_1" xmlns="http://www.w3.org/2000/svg" xmlns:xlink="http://www.w3.org/1999/xlink" x="0px" y="0px"
	 viewBox="0 0 200 200" enable-background="new 0 0 200 200" xml:space="preserve">
<linearGradient id="SVGID_1_" gradientUnits="userSpaceOnUse" x1="-3.2424" y1="135.9978" x2="197.8094" y2="135.9978" gradientTransform="matrix(0.9281 -0.3725 0.3725 0.9281 -40.9373 10.0195)">
	<stop  offset="0" style="stop-color:#FFFFFF"/>
	<stop  offset="1" style="stop-color:#000000"/>
</linearGradient>
<circle fill="#008740" stroke="url(#SVGID_1_)" stroke-miterlimit="10" cx="100" cy="100" r="100"/>
<path fill="#009648" d="M0,99.8c0,20.9,6.3,40.3,17.3,56.4c12.9,6.1,27.3,9.6,42.6,9.6c55.2,0.1,100.1-44.5,100.2-99.8
	c0-20.9-6.3-40.3-17.3-56.4C129.9,3.5,115.5,0,100.2,0C45-0.1,0.1,44.5,0,99.8z"/>
<ellipse fill="#0C6B39" cx="71.7" cy="32.7" rx="8.5" ry="13.2"/>
<ellipse fill="#2F8758" cx="73.8" cy="35" rx="8.5" ry="13.2"/>
<ellipse fill="#0C6B39" cx="153.9" cy="137.7" rx="11.9" ry="13.2"/>
<ellipse fill="#2F8758" cx="156.8" cy="140" rx="11.9" ry="13.2"/>
<ellipse fill="#0C6B39" cx="153.2" cy="78.9" rx="8.5" ry="13.2"/>
<ellipse fill="#2F8758" cx="155.3" cy="81.2" rx="8.5" ry="13.2"/>
<ellipse fill="#0C6B39" cx="33.2" cy="123.9" rx="9.3" ry="10.2"/>
<ellipse fill="#2F8758" cx="35.5" cy="125.7" rx="9.3" ry="10.2"/>
<ellipse fill="#0C6B39" cx="87.3" cy="88.8" rx="8.5" ry="13.2"/>
<ellipse fill="#2F8758" cx="89.5" cy="91.2" rx="8.5" ry="13.2"/>
<ellipse fill="#0C6B39" cx="114" cy="24.1" rx="8.5" ry="13.2"/>
<ellipse fill="#2F8758" cx="116.1" cy="26.4" rx="8.5" ry="13.2"/>
<ellipse fill="#0C6B39" cx="31.6" cy="59" rx="4.3" ry="5.8"/>
<ellipse fill="#2F8758" cx="32.6" cy="60" rx="4.3" ry="5.8"/>
<ellipse fill="#0C6B39" cx="109.3" cy="168.1" rx="13.6" ry="16.6"/>
<ellipse fill="#2F8758" cx="112.6" cy="171" rx="13.6" ry="16.6"/>
</svg>
