<svg width="640" height="480" xmlns="http://www.w3.org/2000/svg" xmlns:xlink="http://www.w3.org/1999/xlink">
 <defs>
  <svg viewBox="0 0 500 500" height="500px" width="500px" y="0px" x="0px" id="svg_8" xmlns:xlink="http://www.w3.org/1999/xlink">
   <g>
    <path d="m285.399994,348.700012c-19.700012,9.600006 -41.900009,15 -65.400009,15c-82.5,0 -149.399986,-66.899994 -149.399986,-149.399994c0,-25.600006 6.400002,-49.599991 17.699997,-70.699997c-2.899994,-3.399994 -5.699997,-6.699997 -8.399994,-10c-22.800003,33.199997 -36.100002,73.300003 -36.100002,116.5c0,113.900009 92.300007,206.199997 206.200001,206.199997c12.200012,0 24.200012,-1.100006 35.799988,-3.100006c12.100006,-19.899994 27.600006,-41.199982 46,-62.699982c-15,-13.100037 -30.5,-27.100037 -46.399994,-41.800018zm-168.099991,-0.600006c1,0 1.800003,0.799988 1.800003,1.799988s-0.800003,1.800018 -1.800003,1.800018s-1.800003,-0.800018 -1.800003,-1.800018s0.800003,-1.799988 1.800003,-1.799988zm10,55.699982c-1.800003,1.799988 -6,0.399994 -9.5,-3.100006c-3.5,-3.5 -4.900002,-7.699982 -3.099998,-9.5s6,-0.399994 9.5,3.100006c3.499992,3.5 4.799995,7.800018 3.099998,9.5zm46.699997,11.100006c-0.699997,1 -3,0.700012 -5,-0.799988c-2,-1.5 -3.100006,-3.5 -2.399994,-4.5c0.699997,-1 3,-0.700012 5,0.799988c2.099991,1.399994 3.099991,3.399994 2.399994,4.5z" fill="#62BCD1"/>
    <path d="m220,64.800003c82.5,0 149.399994,66.900009 149.399994,149.399994c0,56.500015 -31.399994,105.699997 -77.699982,131.099991c15.5,14.200012 30.5,27.400024 44.799988,39.5c9,-10.299988 18.700012,-20.699982 28.899994,-30.899994c29.600006,-29.600006 60.299988,-54.399994 88.399994,-72.899994c1.5,-10.100006 2.300018,-20.5 2.300018,-31c0,-113.899994 -92.300018,-206.199993 -206.200012,-206.199993c-67.5,0 -127.399994,32.399998 -164.999992,82.499996c2.5,3.199997 5,6.400009 7.599998,9.600006c26.400002,-42.600006 73.600006,-71.100006 127.5,-71.100006zm153.600006,59.599998c-1.100006,1.099998 -3.899994,0.300003 -6.100006,-1.900002c-2.199982,-2.199997 -3.100006,-4.900002 -1.899994,-6.099998s3.899994,-0.300003 6.100006,1.900002s3,5 1.899994,6.099998zm-10.5,-36.300003c0.700012,-0.900002 3.600006,0.199997 6.399994,2.400002c2.800018,2.199997 4.5,4.799995 3.700012,5.699997c-0.700012,0.900002 -3.600006,-0.199997 -6.399994,-2.400002c-2.800018,-2.199997 -4.500031,-4.799995 -3.700012,-5.699997zm-32.700012,-4c1,0 1.799988,0.800003 1.799988,1.800003s-0.799988,1.799995 -1.799988,1.799995s-1.799988,-0.799995 -1.799988,-1.799995s0.799988,-1.800003 1.799988,-1.800003z" fill="#62BCD1"/>
    <path d="m126.5,84.900002c2.300003,-1.599998 4.5,-3.400002 7,-5c-69.099998,-57.200001 -120.1,-88.700002 -131.1,-77.600002l35.300001,35.299999c8.099998,-8.099998 41.799999,10.700001 88.799999,47.300003z" fill="#6AFFDC"/>
    <path d="m497.799988,497.700012c11,-10.899994 -20.399994,-61.899994 -77.600006,-131.100006c-1.600006,2.399994 -3.299988,4.700012 -5,7c36.600006,47 55.5,80.699982 47.300018,88.799988l35.299988,35.300018z" fill="#6AFFDC"/>
    <path d="m369.5,214.300003c0,-82.5 -66.899994,-149.399994 -149.399994,-149.399994c-53.899994,0 -101.099998,28.5 -127.400002,71.300003c32.699997,40.900009 77.500008,90.600006 129.000008,142.199982c24,24 47.599976,46.5 70.099976,67.100006c46.300018,-25.5 77.700012,-74.700012 77.700012,-131.199997zm-144.5,-97.400002c-2.399994,6.300003 -9.399994,9.400002 -15.600006,7c-6.599991,-2.599998 -11.5,-0.599998 -18,7.099998c-13.099991,15.399994 -25.399994,20.300003 -35.699997,20.300003c-5.5,0 -10.5,-1.5 -14.600006,-3.199997c-6.199997,-2.800003 -8.799988,-9.900009 -6,-16c2.800003,-6.200005 9.900009,-8.800003 16,-6.000008c2.800003,1.300003 9.200012,4.200005 21.600006,-10.399994c9.100006,-10.900002 24.300003,-22 45.199997,-14.300003c6.5,2.299995 9.600006,9.299995 7.100006,15.5z" fill="#77C5D8"/>
    <path d="m220,363.700012c23.399994,0 45.600006,-5.399994 65.399994,-15c-22.100006,-20.5 -45.099991,-42.600006 -68.300003,-65.800018c-49.299988,-49.299988 -93.399994,-97.299988 -128.799995,-139.199982c-11.300003,21 -17.699997,45.100006 -17.699997,70.699997c0,82.399979 66.900002,149.300003 149.400002,149.300003z" fill="#77C5D8"/>
    <path d="m453.899994,281c0,0 0,0.100006 0,0c-28.200012,18.5 -58.899994,43.299988 -88.5,72.899994c-10.200012,10.300018 -19.799988,20.600006 -28.899994,30.899994c13.100006,11.100006 25.5,21.300018 37.199982,30.300018c15.700012,-11.800018 29.700012,-25.800018 41.5,-41.600006c1.700012,-2.299988 3.400024,-4.600006 5,-7c17.200012,-24.899994 29.000031,-54 33.700012,-85.5z" fill="#3FADC6"/>
    <path d="m331.700012,390.5c-18.299988,21.5 -33.799988,42.700012 -46,62.700012c0,0.099976 -0.100006,0.099976 -0.100006,0.199982c29.700012,-5.100006 57.200012,-16.600006 81,-33.100006c-11.100006,-9.299988 -22.800018,-19.299988 -34.899994,-29.799988z" fill="#3FADC6"/>
    <ellipse ry="6.5" rx="2.1" cy="92.2" cx="368.1" fill="#77C5D8" transform="matrix(-0.6271 0.7789 -0.7789 -0.6271 670.7556 -136.7118)"/>
    <circle r="1.8" cy="85.9" cx="330.4" fill="#77C5D8"/>
    <ellipse ry="2.9" rx="5.7" cy="120.4" cx="369.6" fill="#77C5D8" transform="matrix(-0.7071 -0.7071 0.7071 -0.7071 545.7905 466.8524)"/>
    <circle r="1.8" cy="349.9" cx="117.3" fill="#3FADC6"/>
    <ellipse ry="4.5" rx="8.9" cy="397.5" cx="121" fill="#3FADC6" transform="matrix(-0.7071 -0.7071 0.7071 -0.7071 -74.5926 764.1743)"/>
    <ellipse ry="4.5" rx="2.3" cy="412.2" cx="170.3" fill="#3FADC6" transform="matrix(0.5827 -0.8127 0.8127 0.5827 -263.9397 310.4189)"/>
    <path d="m218.100006,101.300003c-20.899994,-7.800003 -36.099991,3.400002 -45.199997,14.300003c-12.300003,14.599991 -18.800003,11.699997 -21.600006,10.399994c-6.199997,-2.799995 -13.300003,-0.199997 -16,6c-2.800003,6.199997 -0.199997,13.300003 6,16c4.100006,1.800003 9.100006,3.199997 14.600006,3.199997c10.199997,0 22.5,-4.899994 35.699997,-20.299988c6.5,-7.800003 11.300003,-9.700005 18,-7.100006c6.199997,2.400002 13.100006,-0.599998 15.600006,-7c2.299988,-6.100006 -0.800018,-13.100006 -7.100006,-15.5z" fill="#A4D8E5"/>
    <path d="m336.5,384.899994c-14.200012,-12.100006 -29.299988,-25.299988 -44.799988,-39.5c-22.5,-20.600006 -46.100006,-43.100006 -70.100006,-67.100006c-51.5,-51.5 -96.300011,-101.300003 -129.000008,-142.199997c-2.599998,-3.299988 -5.199997,-6.5 -7.599998,-9.599991c-36.700001,-47.099998 -55.6,-80.700001 -47.5,-88.900002l-35.3,-35.299999c-11.1,11 20.500001,62.100002 77.699994,131.300006c2.700005,3.300003 5.5,6.699997 8.400002,10c35.400002,42 79.400002,89.899994 128.800011,139.199982c23.199997,23.200012 46.199982,45.300018 68.299988,65.800018c15.899994,14.799988 31.399994,28.700012 46.300018,41.799988c12.099976,10.600006 23.799988,20.5 35,29.800018c69,57.099976 119.899994,88.5 131,77.5l-35.300018,-35.300018c-8.199982,8.200012 -41.699982,-10.600006 -88.599976,-47.199982c-11.700012,-9 -24.200012,-19.200012 -37.300018,-30.300018z" fill="#6AFFDC"/>
   </g>
  </svg>
 </defs>
 <g>
  <title>Layer 1</title>
  <use x="0" y="0" transform="matrix(0.3199999928474426,0,0,0.3199999928474426,0,0) " id="svg_9" xlink:href="#svg_8"/>
 </g>
</svg>