<svg width="640" height="480" xmlns="http://www.w3.org/2000/svg" xmlns:xlink="http://www.w3.org/1999/xlink">
 <!-- Created with SVG-edit - http://svg-edit.googlecode.com/ -->
 <defs>
  <svg viewBox="0 0 500 500" height="500px" width="500px" y="0px" x="0px" id="svg_2" xmlns:xlink="http://www.w3.org/1999/xlink">
   <g>
    <path d="m10,320.299988c-0.3,-1.100006 -0.6,-2.100006 -0.9,-3.200012c0.299999,1.100037 0.599999,2.200012 0.9,3.200012z" fill="#EAEAD2"/>
    <path d="m8.5,314.600006c-0.5,-1.799988 -0.9,-3.5 -1.4,-5.299988c0.4,1.799988 0.9,3.599976 1.4,5.299988z" fill="#EAEAD2"/>
    <path d="m11.4,324.799988c-0.099999,-0.200012 -0.099999,-0.399994 -0.2,-0.600006c0.1,0.200012 0.1,0.400024 0.2,0.600006z" fill="#EAEAD2"/>
    <path d="m429.700012,76.199997c0.5,0.5 1,1 1.5,1.599998c-0.5,-0.499992 -1,-0.999992 -1.5,-1.599998z" fill="#EAEAD2"/>
    <path d="m432.700012,79.400002c-1.900024,0 -3.900024,-0.200005 -5.800018,-0.800003c-11.299988,-6.099998 -21.899994,-16.199997 -26.399994,-28.299999c-41.899994,-31.599998 -94,-50.299999 -150.5,-50.299999c-138.099998,0 -250,111.900002 -250,250c0,20.200012 2.4,39.799988 6.9,58.600006c-4.5,-18.800018 -6.8,-38.399994 -6.7,-58.600006c0,-27.100006 4.3,-53.100006 12.2,-77.399994c27.9,-3.700012 41.699999,-46.400009 72.500002,-54.200005c16.5,-4.300003 36,10.599998 47.400002,23.599998c3.899994,4.300003 7.300003,9.199997 10.199997,14.699997c17.100006,34.400009 21,73.699997 25,111.000015c2,15.699982 11.800003,33.399994 25.600006,33.399994c22,2 24,-31.600006 36.799988,-27.5c7.300003,2.399994 4.300003,12.199982 8.300003,16.899994c7.300003,8.600006 24.400009,-1.200012 35.599991,13.799988c12.800018,17.100006 7.100006,35.600006 1.600006,55c-5.5,19.5 -25,53.900024 -69.799988,48.900024c-19.900009,-2.200012 -19.5,-13.600006 -34.800003,-22.400024c-54.600006,-31.599976 -93.800003,25.800018 -143.800003,-22.799988c41.300003,81.299988 125.600006,137 223,137c138.100006,0 250,-111.899994 250,-250c0,-66 -25.600006,-125.900002 -67.299988,-170.599998zm-237.900009,376.999992c-2,3.899994 -3.900009,5.899994 -7.900009,7.899994c-5.899994,2 -11.799988,3.300018 -17.699997,4.100006c-5.899994,0.800018 -11.800003,0.800018 -17.699997,-0.199982c-9.800003,-3.900024 -19.699997,-9.800018 -23.599998,-19.700012c-5.900002,-13.799988 11.799995,-17.700012 21.599998,-17.700012c5.899994,0 11.800003,2 17.300003,4.100006c4.5,0.399994 8.599991,1.200012 12.199997,2.399994c5.899994,1.400024 13.800003,1.400024 15.699997,7.300018v11.799988l0.100006,0zm51.699997,30.600006c-6.5,-0.200012 -21,-7.899994 -20.199997,-13c0.800003,-5.100006 12.800003,-9.399994 18.899994,-11.200012c10.400009,-0.799988 20.400009,5.100006 21.800003,11.800018c1.299988,6.699982 -13.5,12.600006 -20.5,12.399994zm177,-379.099998c4.700012,0.400002 9.200012,2.400002 13.600006,5.099998c8.600006,5.699997 15.899994,15.100006 20.399994,23c2.799988,4.899994 5.100006,10.600006 6.899994,16.300003c7.5,24.800003 15.300018,66 -17.699982,76.5c-7.300018,1.800003 -14.900024,0.599991 -22.600006,-3.100006c-3.5,-2.800003 -7.300018,-4.899994 -10.800018,-7.5c-3.5,-2.599991 -6.699982,-5.300003 -9,-8.800003c-11,-8.5 -18.899994,-20.199997 -18.899994,-32.199997c-3.899994,-25.699997 7.899994,-65 38.100006,-69.299995zm-132.399994,-76.100002c7.299988,-3.699999 14.899994,-4.9 22.399994,-4.099998c7.5,0.799999 14.5,3.5 21,7.700001c4.100006,2.799999 8.100006,6.299999 11.600006,10c5.899994,7.899998 2,15.699997 -5.899994,19.699997c-4.900024,1 -9.800018,3.5 -14.900024,4.900002c-5.099976,1.400002 -10.599976,1.800003 -16.5,-1.400002c-8.799988,-2.199997 -15.699982,-6.099998 -19.899994,-11c-9.600006,-6.099998 -5.699982,-19.899998 2.200012,-25.799999zm-144.100006,54.100002c-27.699997,18.699997 -74.099998,21.400002 -70.199997,2.900002c3.899994,-18.5 47.199997,-59.000004 82.699997,-62.700003c14.199997,-0.200001 26.699997,-2.200001 31.199997,7.699999s-16,33.399998 -43.699997,52.100002zm69.600006,172.599998c-7.700012,1 -14.700012,-1 -19.900009,-4.300003c-3.899994,-2.199997 -9.800003,-4.099991 -11.800003,-8.099991c-2,-7.900009 2,-15.700012 5.900009,-23.600006c3.899994,-5.899994 9.800003,-9.800003 17.699997,-9.800003c13.800003,-2 31.399994,0 35.600006,13.800003c5.899994,15.600006 -11.800003,27.399994 -27.5,32zm-38.700012,-128.199997c0.600006,-5.5 2.200012,-11 3.100006,-15.900002c3.899994,-19.700005 19.699997,-31.400002 37.300003,-37.300003c25.599991,-9.799995 40.499985,17.5 66.199997,30.099998c25.700012,12.600006 39.899994,1 60.5,22.400009c3.299988,3.5 5.5,8.299988 7.299988,13c1.800018,4.699997 3.100006,9.599991 3.5,15.099991c2,23.600006 -11.799988,45.199997 -31.399994,57c-5.899994,2.900009 -12.799988,4.5 -19.699982,4.699997c-52.900009,-4.799988 -123.700012,-28.399994 -126.800018,-89.099991zm101.399994,255.499985c0,-5 4,-9 9,-9c5,0 9,4 9,9c0,5 -4,9 -9,9c-5,0.100006 -9,-4 -9,-9zm12.200012,108.900024c22.799988,-37.700012 56,-79.600006 96.700012,-120.5c9.299988,-9.300018 18.699982,-18.200012 28.099976,-26.700012c9.200012,-30 26.600006,-58.399994 46,-82c4.700012,-4.100006 10.200012,-7.299988 16.100006,-9.600006c3.700012,2.200012 5.700012,7.700012 5.899994,15.700012c-0.699982,8.100006 -1.699982,16 -3,23.799988c4.800018,-3.399994 9.600006,-6.600006 14.300018,-9.699982c-16,106.399994 -98.800018,190.699982 -204.100006,209z" fill="#EAEAD2"/>
    <path d="m481.200012,295.399994c-3.100006,18.5 -7.799988,36.399994 -14,53.799988c-2.399994,5.900024 -4.299988,11.600006 -7.299988,16.5c-20.800018,34.800018 -50.5,36.800018 -50.300018,20c0.5,-12.899994 2.899994,-25.699982 6.700012,-38.299988c-9.399994,8.5 -18.800018,17.399994 -28.100006,26.700012c-40.700012,40.899994 -73.899994,82.699982 -96.700012,120.5c105.300018,-18.300018 188.100006,-102.600006 204,-208.899994c-4.700012,3.099976 -9.5,6.399994 -14.299988,9.699982zm-95.400024,144.700012c-4.299988,2.600006 -8.799988,2.799988 -10,0.600006c-1.399994,-2.200012 1.200012,-5.899994 5.5,-8.5c4.299988,-2.600006 8.799988,-2.800018 10,-0.600006c1.400024,2.199982 -1.199982,5.899994 -5.5,8.5z" fill="#E6E6C8"/>
    <path d="m426.899994,78.599998c1.899994,0.599998 3.899994,0.800003 5.799988,0.800003c0,0 0,0 0.100006,0c-0.5,-0.5 -1,-1.100006 -1.5,-1.600006c-0.5,-0.5 -1,-1 -1.5,-1.599998c-9.199982,-9.599998 -18.899994,-18.299999 -29.399994,-26.099998c0,0.099998 0.100006,0.099998 0.100006,0.200001c4.5,12.100002 15.100006,22.299999 26.399994,28.299999z" fill="#DDDDB7"/>
    <path d="m324.5,214.600006c19.700012,-11.800003 33.399994,-33.399994 31.399994,-57c-0.399994,-5.5 -1.799988,-10.399994 -3.5,-15.100006c-1.799988,-4.699997 -3.899994,-9.399994 -7.299988,-13c-20.600006,-21.399994 -34.800018,-9.799995 -60.5,-22.399994c-25.700012,-12.599998 -40.700012,-39.900002 -66.199997,-30.099998c-17.700012,5.900002 -33.400009,17.699997 -37.300003,37.299995c-1,4.900002 -2.600006,10.400002 -3.100006,15.900009c3.100006,60.699997 73.900009,84.300003 127,89c6.700012,-0.100006 13.600006,-1.600006 19.5,-4.600006z" fill="#DDDDB7"/>
    <path d="m288.899994,57.599998c4.100006,4.900002 11,8.800003 19.899994,11c5.899994,3.099998 11.399994,2.800003 16.5,1.400002c5.100006,-1.400002 10,-3.900002 14.899994,-4.900002c7.900024,-3.900002 11.800018,-11.799999 5.900024,-19.700001c-3.5,-3.700001 -7.5,-7.299999 -11.600006,-10c-6.5,-4.1 -13.600006,-6.900002 -21,-7.699999c-7.5,-0.800001 -15.100006,0.4 -22.399994,4.099998c-7.899994,5.900003 -11.800018,19.700003 -2.200012,25.800001z" fill="#DDDDB7"/>
    <path d="m170.600006,385.799988c15.300003,8.799988 14.899994,20.200012 34.800003,22.399994c44.800003,4.899994 64.300003,-29.5 69.800003,-48.899994c5.5,-19.5 11.199982,-37.899994 -1.600006,-55c-11.200012,-14.899994 -28.300003,-5.100006 -35.599991,-13.799988c-3.900009,-4.700012 -1,-14.5 -8.300003,-16.900024c-12.800003,-4.099976 -14.699997,29.5 -36.800003,27.5c-13.800003,0 -23.600006,-17.699982 -25.600006,-33.399994c-3.899994,-37.300003 -7.899994,-76.699997 -25,-111c-2.899994,-5.5 -6.299988,-10.399994 -10.199997,-14.699997c-11.399994,-13 -30.899994,-27.900002 -47.399994,-23.599998c-30.900002,7.900002 -44.600002,50.499992 -72.500003,54.200005c-7.700009,24.300003 -12.000009,50.300003 -12.000009,77.400009c-0.1,20.200012 2.2,39.799988 6.7,58.600006c0.1,0.299988 0.1,0.5 0.2,0.799988c0.4,1.800018 0.9,3.5 1.4,5.300018c0.2,0.799988 0.4,1.699982 0.7,2.5c0.3,1.099976 0.6,2.099976 0.900001,3.199982c0.4,1.300018 0.799999,2.600006 1.2,3.899994c0.099999,0.200012 0.099999,0.400024 0.2,0.600006c4.1,13.200012 9.200001,25.899994 15.4,38c0.099998,0.100006 0.199999,0.100006 0.199999,0.200012c49.900002,48.5 89.099998,-8.899994 143.500008,22.699982z" fill="#DDDDB7"/>
    <path d="m381.299988,432.200012c-4.299988,2.600006 -6.899994,6.299988 -5.5,8.5c1.200012,2.200012 5.700012,2 10,-0.600006c4.299988,-2.600006 6.899994,-6.299988 5.5,-8.5c-1.199982,-2.200012 -5.699982,-2 -10,0.600006z" fill="#DDDDB7"/>
    <path d="m404.299988,209.300003c2.399994,3.5 5.5,6.300003 9,8.800003c3.5,2.599991 7.299988,4.699997 10.799988,7.5c7.700012,3.699997 15.300018,4.899994 22.600006,3.099991c33,-10.399994 25.200012,-51.699997 17.700012,-76.5c-1.800018,-5.699997 -4.100006,-11.399994 -6.899994,-16.299988c-4.5,-7.900009 -11.800018,-17.300003 -20.400024,-23.000008c-4.299988,-2.799995 -8.799988,-4.699997 -13.599976,-5.099998c-30.300018,4.300003 -42.100006,43.600006 -38.100006,69.199997c0,12.100006 7.899994,23.899994 18.899994,32.300003z" fill="#DDDDB7"/>
    <path d="m190.800003,33.799999c-4.5,-9.800001 -17.100006,-7.9 -31.199997,-7.700001c-35.600006,3.800001 -78.800003,44.300003 -82.800003,62.700005c-3.900002,18.5 42.5,15.699997 70.199997,-2.900002s48.399994,-42.300003 43.800003,-52.100002z" fill="#DDDDB7"/>
    <path d="m245.100006,462.899994c-6.100006,1.799988 -18.100006,6.100006 -18.899994,11.200012c-0.800003,5.099976 13.799988,12.799988 20.199997,13c7.099991,0.199982 21.800003,-5.700012 20.400009,-12.400024c-1.300018,-6.699982 -11.300018,-12.599976 -21.700012,-11.799988z" fill="#DDDDB7"/>
    <circle r="9" cy="385.8" cx="288.3" fill="#DDDDB7"/>
    <path d="m459.899994,365.799988c2.899994,-4.899994 4.899994,-10.600006 7.299988,-16.5c6.200012,-17.399994 11,-35.299988 14,-53.799988c1.300018,-7.800018 2.400024,-15.700012 3,-23.800018c-0.199982,-8.100006 -2.199982,-13.600006 -5.899994,-15.699997c-5.899994,2.400009 -11.399994,5.500015 -16.100006,9.599991c-19.399994,23.5 -36.799988,52 -46,82c-3.799988,12.600006 -6.199982,25.400024 -6.699982,38.300018c-0.100006,16.600006 29.600006,14.700012 50.399994,-20.100006z" fill="#DDDDB7"/>
    <path d="m179,437.299988c-3.5,-1.200012 -7.699997,-2 -12.199997,-2.399994c-5.5,-2.200012 -11.400009,-4.100006 -17.300003,-4.100006c-9.800003,0 -27.5,3.899994 -21.599998,17.700012c3.900002,9.799988 13.799995,15.699982 23.599998,19.699982c5.899994,1 11.800003,1 17.699997,0.200012c5.900009,-0.800018 11.800003,-2.200012 17.700012,-4.100006c3.899994,-2 5.899994,-3.899994 7.899994,-7.899994v-11.800018c-2,-5.899963 -9.900009,-5.899963 -15.800003,-7.299988z" fill="#DDDDB7"/>
    <path d="m208.5,212.699997c-7.899994,0 -13.800003,3.899994 -17.699997,9.800003c-3.900009,7.899994 -7.900009,15.699997 -5.900009,23.599991c2,3.900009 7.900009,5.900009 11.800003,8.100006c5.100006,3.300003 12.199997,5.300003 19.900009,4.300003c15.699997,-4.5 33.399994,-16.300003 27.5,-32c-4.100006,-13.800003 -21.800003,-15.800003 -35.600006,-13.800003z" fill="#DDDDB7"/>
   </g>
  </svg>
 </defs>
 <g>
  <title>Layer 1</title>
  <use x="0" y="0" transform="matrix(0.3199999928474426,0,0,0.3199999928474426,0,0) " id="svg_3" xlink:href="#svg_2"/>
 </g>
</svg>