<?xml version="1.0" encoding="utf-8"?>
<!-- Generator: Adobe Illustrator 18.0.0, SVG Export Plug-In . SVG Version: 6.00 Build 0)  -->
<!DOCTYPE svg PUBLIC "-//W3C//DTD SVG 1.1//EN" "http://www.w3.org/Graphics/SVG/1.1/DTD/svg11.dtd">
<svg version="1.1" id="Arrow_1_" xmlns="http://www.w3.org/2000/svg" xmlns:xlink="http://www.w3.org/1999/xlink" x="0px" y="0px"
	 width="500px" height="500px" viewBox="0 0 500 500" enable-background="new 0 0 500 500" xml:space="preserve">
<g>
	<path fill="#A482A4" d="M130.9,30.2c1.9-1.1,3.9-2.1,5.8-3.1C134.8,28.1,132.8,29.2,130.9,30.2z"/>
	<path fill="#A482A4" d="M487.4,328.5c-0.2,0.7-0.4,1.4-0.7,2C486.9,329.9,487.1,329.2,487.4,328.5z"/>
	<path fill="#A482A4" d="M291.6,495.5c13.5-22.2,30.5-45.8,50.5-69.8c-2-8.8-1.8-19,3.5-24.3c3.9-3.9,10.2-3.9,13.9,0
		c0.7,0.7,1.2,1.4,1.6,2.3c8.6-9.5,17.6-19.1,27.1-28.6c7.9-7.9,15.8-15.5,23.8-22.8c-0.1-0.1-0.2-0.1-0.2-0.2
		c-7.5-7.1-2.6-16.7,4.3-30.1c2.9-5.5,6.1-11.6,7.7-16.3c1.6-5.3,7.3-8.1,12.4-6.3c5.3,1.6,8.1,7.3,6.3,12.4
		c-1.8,5.3-4.5,11-7.5,16.7c1.4-0.2,2.8-0.2,4.4-0.1c9.8-8.2,19.6-15.9,29.3-23c-3-4.2-4.6-9.2-4.2-14.7c1-13,12-25,22-30.6
		c4.6-2.5,10.4-1,13.2,3.5c0.2-4.5,0.4-9.1,0.4-13.7c0-7-0.3-14-0.9-20.9c-2.1-1.4-4.1-3.1-5.6-5.2c-6.1-8.2-6.9-20.3-3.2-42.9
		c-2.5-8.9-5.6-17.6-9.1-26c-1.8,6-5.1,11-12.1,12.2c-0.6,0-1,0-1.8,0c-4.7,0-8.8-3.3-9.6-8.3c-0.6-4.1,1.4-8.1,4.7-10
		c0.6-1.6,1-4.3,1.4-6.5c0.8-4.5,1.8-10.1,3.7-15.6C451.8,99,431,74.6,406.3,54.8c-1.2,2.2-2.7,4.1-4.9,5.9
		c-1.8,1.8-4.1,2.6-6.5,2.6c-2.6,0-5.3-1.2-7.3-3.3c-3.7-4.1-3.3-10.4,0.8-13.9c0.6-0.4,1-1,1.2-1.2c-0.6-1.4-2.6-3.3-4.7-5.3
		c3.7,2.3,7.3,4.7,10.8,7.2c-17-12.2-35.6-22.3-55.4-30c-1,2.9-3.3,5-6.5,6c-5.9,1.8-11.4,2.6-16.5,2.6c-6.9,0-13-1.6-18.3-4.7
		c-10.1-6-13.3-15.6-13.7-18.2C273.8,0.9,262,0,250.1,0c-28.4,0-55.7,4.7-81.1,13.5c0,0.3,0,0.5,0,0.9c-0.8,8.1-2.9,19.3-12,23.6
		c-2.4,1.2-4.5,1.6-6.7,1.6c-6.3,0-12-3.7-15.7-6.3c-1-0.6-2.4-1.6-2.9-1.8c-0.6-0.2-1.2-0.4-1.5-0.8C105.2,44.3,82.9,62,64.1,83
		c4,0.6,7.2,2.6,9.5,5.6c6.7,8.8,3.1,23-0.4,36.5c-0.2,0.6-0.4,1.4-0.6,2c0.7-0.4,1.5-0.8,2.3-1.2c9.3-14.8,20.9-28.1,34.4-39.1
		c-10-7-17.1-16.6-21.9-26.5c5.1-4.3,10.4-8.6,15.9-12.6c3.9,9.9,11,20.7,23.6,26.5c14.2-8.7,29.9-15.3,46.5-19.3
		c-0.1-0.4-0.3-0.8-0.3-1.3c-0.8-5.3,2.8-10.4,8.1-11.4c10.6-1.8,19.1-0.2,25.3,5.1c1.2,1,2.2,2.1,3.1,3.2c0.4,0,0.8,0,1.3,0
		c24.4,0,47.6,5.5,68.3,15.3c-0.2-1.7-0.7-4-2.1-6.8c-2.9-6.3-7.5-10-9.2-10.6c-5.3,0.4-9.8-3.5-10.4-8.8c-0.6-5.3,3.5-10,8.8-10.6
		c8.4-0.8,17.7,4.9,24.8,14.9c6.1,8.7,10.6,21.4,6.2,32c11.7,7.5,22.3,16.5,31.7,26.6c-1-4.1,0.9-8.6,4.7-10.7c8.3-4.5,9-7.3,9-6.9
		c0.2-1.2-3.1-6.1-4.5-8.1c-4.5-6.3-9.8-13.9-9.6-24.4c0.2-5.3,4.5-9.6,9.8-9.6h0.2c5.5,0,9.8,4.5,9.6,10c0,3.9,2.9,8.1,6.1,12.6
		c4.5,6.3,9.8,13.9,7.7,23.6c-1.8,7.5-7.7,13.9-18.7,20c-1.4,0.8-3.1,1.2-4.7,1.2c-1.2,0-2.4-0.3-3.5-0.7c6.9,8.4,12.9,17.6,18,27.3
		c11.1,1.8,21.8,7.8,21.9,7.9c4.5,2.9,5.9,8.8,3.1,13.6c-2.9,4.5-8.8,5.9-13.6,3.1c-0.4-0.3-0.9-0.5-1.5-0.8c5.2,15.7,8,32.5,8,49.9
		c0,50.8-23.7,96-60.5,125.3c3.8,4.2,8.3,7.9,10.8,8.9c0.2-0.2,0.2-0.4,0.4-0.8c2.6-7.7,7.3-10.4,10.8-11.4
		c8.4-2.4,15.3,3.7,22.6,10c14.7,12.6,19.4,13.6,26.5,5.7c3.7-4.1,9.8-4.3,13.9-0.8c4.1,3.7,4.3,9.8,0.8,13.9
		c-7.7,8.6-15.5,11.8-22.8,11.6c-13.2,0-24.6-9.8-31.2-15.7c-1.2-1-2.6-2.2-3.7-3.1c-3.7,7.5-10.4,11.2-18.3,10.4
		c-9.3-0.9-19-8.9-25.9-17.4c-13,7.9-27.2,14.1-42.2,18.1c4.2,5.3,2.7,12.9,1.5,17.8c-0.6,2.6-1.6,7.9-1,9.2c0,0,1.2,0.8,4.3,1
		c16.5,1.4,21.4,8.8,24.2,16.9c0.2,0.2,0.2,0.6,0.4,1c1,0,2.9,0.2,6.5-0.2c5.3-0.6,10.2,3.3,10.8,8.6c0.6,5.3-3.3,10.2-8.6,10.8
		c-2.2,0.2-4.3,0.4-6.1,0.4c-14.3,0-18.9-6.9-21.4-14.3c-1-2.8-1.2-3.3-7.1-3.7c-8.4-0.6-14.7-3.7-18.7-8.8
		c-5.9-8.1-3.7-18.3-2.4-25c0.2-1,0.4-2.4,0.6-3.3c-1.2-2-1.6-4.3-1.1-6.6c-7.6,1.1-15.3,1.7-23.2,1.7c-23.6,0-45.9-5.1-66.1-14.3
		c-3.2,2-7.4,2.1-10.8-0.3C117.7,345,107.3,342,102.8,343c-1,0.2-1.6,0.6-1.8,1.4c-1,1.4-0.2,5.5,0.4,8.8c1.2,6.1,2.8,14.5-3.1,21.4
		c-5.5,6.5-14.7,7.5-21.8,7.5c-0.6,0-1.2,0-1.8,0c-5.5-0.2-9.8-4.5-9.6-10c0.2-5.5,4.5-9.8,10-9.6c4.3,0.2,6.5-0.2,7.7-0.6
		c-0.2-1.6-0.6-3.7-0.8-5.3c-1.2-6.3-2.8-14.7,2.2-22.6c3.2-5,7.9-8.4,13.7-9.9c-21.7-21.6-37.1-49.3-43.7-80.3
		c-1.1,0.2-2.2,0.3-3.3,0.3c-6.3,0-12.6-2.9-17.7-8.4c-8.1-8.6-12.4-24.2-5.3-36.5c2.6-4.7,8.6-6.5,13.4-3.7
		c4.7,2.6,6.3,8.6,3.9,13.6c-2.2,3.9-0.4,10.2,2.8,13.6c0.8,0.8,2.4,2.4,3.3,2c0,0,0,0,0,0c-0.4-4.5-0.6-9.1-0.6-13.7
		c0-21.2,4.2-41.5,11.7-60c-1.9-0.2-3.6-0.9-5.4-2c-2.6-1.6-6.5-5.5-5.9-13.6c0.4-4.1,1.6-9,3.1-14.7c1.2-4.7,3.5-13.8,3.5-18.3
		c-2.3-0.8-4.2-2.3-5.5-4.7c-6.5,8.4-12.4,17.2-17.8,26.4c0.6,1.2,1,2.5,1,3.9c0.8,22-11,37.7-22.9,44.9
		c-7.8,23.9-12.1,49.4-12.2,75.9c6.2,6.1,11.6,14,14.1,20.8c4.5,12,0.2,19.1-2.8,22.2c-3.1,3.5-4.9,7.9-4.1,10.6
		c0.8,3.1,5.3,5.9,12.2,7.7c5.3,1.4,8.4,6.7,7.1,12c-1.2,4.3-5.1,7.3-9.4,7.3c-0.8,0-1.6-0.2-2.6-0.4c-0.7-0.2-1.4-0.3-2.1-0.5
		c7.4,22.4,17.8,43.4,30.8,62.6c3.1-2.1,7.2-2.5,10.7-0.3c24.2,14.3,28.7,25.9,29.9,36.3c0,0.2,0,0.6,0,0.8c1,2.9,0.4,6-1.1,8.4
		c11.6,10.5,24.2,19.8,37.6,28c-0.1-1.1-0.7-2.6-1.9-4.5c-8.8-14.5-9.8-27.3-2.6-34.2c10.8-10.2,27.5,1,33,4.7
		c4.5,2.9,5.7,9,2.8,13.6s-9,5.7-13.6,2.8c-2.4-1.6-4.3-2.8-5.9-3.5c0.8,1.8,1.8,3.9,3.3,6.5c4.5,7.7,5.9,14.7,4.1,21.2
		c-0.4,1.3-0.9,2.4-1.5,3.4c15.1,7.6,31.1,13.6,47.7,18c0.4-2.3,1.8-4.3,3.7-5.9c3.5-2.8,8.3-2.8,11.6-0.4c1.8-2.4,4.3-7.1,7.9-15.7
		c4.3-10.4,14.3-14.9,26.7-12.2c16.6,3.7,41.1,23.3,41.6,40.9c13.6-1.5,26.8-4.1,39.6-7.6c0.2-0.4,0.4-0.8,0.6-1.3
		C309.2,491.9,300.5,493.9,291.6,495.5z M234.2,27.3c-0.8,0.2-1.4,0.2-2.2,0.2c-4.5,0-8.6-3.1-9.6-7.7c-0.8-3.1,0.2-6.3,2.2-8.6
		c-5.7-2-12.6-3.7-19.3-5.1c-1.2-0.4-2.4-0.8-3.1-1.4C216.9,2,232,0.4,247.5,0.2c6.3,4.5,6.3,8.6,6.3,11.2
		C253.8,23,239.5,26.1,234.2,27.3z M445.8,221.4c-1.2,4.3-5.1,7.3-9.4,7.3c-0.8,0-1.8-0.2-2.6-0.4c-5.1-1.4-8.3-6.7-7.1-12
		c6.1-23.4-16.1-30.1-18.7-30.8c-5.3-1.4-8.3-6.7-6.9-12c1.4-5.3,6.7-8.3,12-6.9c1.2,0.4,11.2,3.1,20,11
		C446,188.6,450.3,204.1,445.8,221.4z M392.1,93.9c1.2-5.3,6.3-8.6,11.6-7.7c5.3,1.2,8.6,6.3,7.7,11.6c-0.8,4.5-1.2,10.4,2.6,13.8
		c3.7,3.3,10.8,3.9,18.1,1.6c5.1-1.8,10.8,1.2,12.4,6.3c1.8,5.1-1.2,10.8-6.3,12.4c-4.9,1.6-9.8,2.4-14.5,2.4
		c-8.8,0-16.9-2.8-22.8-8.1C396.1,121.8,388.6,112,392.1,93.9z M390.2,260.9c0-5.5,4.3-9.8,9.8-9.8c3.5,0,6.7,1.8,8.4,4.7
		c2,0.2,5.1,0,6.9-0.6c1.6-4.1,5.7-6.9,10.2-6.3c5.3,0.6,9.2,5.5,8.6,10.8c-1.2,11-12.8,15.7-23.6,15.7c-0.8,0-1.4,0-2,0.2
		C395.1,274.9,390.2,267.2,390.2,260.9z M200,409.4c-3.9,1.4-8.1,2.2-12.2,2.2c-10.2,0-20.4-4.3-25.5-12c-5.7-8.6-4.1-18.7,4.3-27.3
		c3.9-3.9,10-3.9,13.9-0.2c3.9,3.9,3.9,10,0.2,13.9c-1.4,1.4-1.8,2.4-2,2.8c1.4,2,8.3,4.7,13.9,2.4c5.1-2,10.8,0.4,12.8,5.5
		C207.5,401.8,205.1,407.5,200,409.4z"/>
	<path fill="#A482A4" d="M396.4,47.3c1.4,1,2.8,2,4.2,3.1C399.2,49.4,397.8,48.3,396.4,47.3z"/>
	<path fill="#A482A4" d="M402.1,51.6c1.1,0.9,2.3,1.8,3.4,2.7C404.4,53.3,403.3,52.4,402.1,51.6z"/>
	<path fill="#A482A4" d="M490.7,317.7c-0.2,0.8-0.5,1.7-0.7,2.5C490.2,319.4,490.4,318.5,490.7,317.7z"/>
	<path fill="#A482A4" d="M324,11.1c0.2,0.1,0.4,0.1,0.7,0.2C324.4,11.2,324.2,11.2,324,11.1z"/>
	<path fill="#A482A4" d="M318.4,9.4c0.1,0,0.1,0,0.2,0.1C318.5,9.5,318.4,9.5,318.4,9.4z"/>
	<path fill="#A482A4" d="M496.1,277.2c-6.3,3.5-11.8,10.4-12.2,14.9c0,0.7,0,1.3,0.5,2c3.7-2.6,7.4-5.1,11.1-7.5
		c-0.8,5.5-1.9,10.9-3,16.2c0.5,0.8,1,1.6,1.4,2.4c2.2-9.9,3.9-20,4.9-30.2C498,275.8,497.1,276.7,496.1,277.2z"/>
	<path fill="#A482A4" d="M238.1,479.2c-6.7-3.5-10-2.9-10.4-2.8c0,0-0.2,0.2-0.4,0.8c-3.5,8.3-6.8,15.3-10.6,20.4
		c10.9,1.5,22.1,2.2,33.4,2.2c2.6,0,5.2-0.1,7.9-0.1c0-0.3,0-0.6,0-0.8C257.8,495.3,249.5,485.1,238.1,479.2z"/>
	<path fill="#A482A4" d="M481.3,339.8c-9.4,24.3-22.5,46.7-38.6,66.6c0.2,0.7,0.4,1.4,0.5,2.2c16.2-19.7,29.5-42,39.1-66
		c-0.1-0.2-0.2-0.3-0.2-0.5C481.8,341.3,481.5,340.6,481.3,339.8z"/>
	<path fill="#A482A4" d="M362.8,471.5c0.8,0.1,1.5,0.2,2.2,0.3c23.7-12.3,45.2-28.3,63.7-47.2c-0.5-0.3-0.9-0.6-1.4-0.9
		C408.7,442.9,386.9,459.1,362.8,471.5z"/>
	<path fill="#AA8AAA" d="M83.9,121c4.9-2.6,10.8-0.6,13.2,4.3c2.6,4.9,0.6,10.8-4.3,13.2c-2.2,1-4.3,2.4-6.9,3.7
		c-8.1,4.5-15.1,8.4-21.6,8.4c-0.6,0-1.3,0-1.9-0.1c-7.5,18.5-11.7,38.8-11.7,60c0,4.6,0.2,9.2,0.6,13.7c4.9-2.1,10.8,0,12.9,4.9
		c2.2,4.9,0,10.8-4.9,13c-1.7,0.7-3.5,1.2-5.2,1.5c6.5,31,22,58.8,43.7,80.3c0.3-0.1,0.7-0.2,1-0.3c11.6-2.6,27.1,2.9,46.4,16.1
		c4.5,3.1,5.7,9.2,2.6,13.8c-0.8,1.2-1.8,2.1-3,2.8c20.1,9.1,42.5,14.3,66.1,14.3c7.9,0,15.6-0.6,23.2-1.7c0.2-1.1,0.6-2.2,1.1-3.2
		c2.8-4.7,8.6-6.3,13.4-3.5c1.5,0.9,2.7,1.9,3.6,3c15.1-4,29.3-10.1,42.2-18.1c-5.3-6.5-8.9-13.3-9.4-17.6c-0.8-5.5,3.1-10.4,8.4-11
		c5.1-0.6,9.8,2.9,10.8,8.1c0.9,2.7,3.4,6.1,6.3,9.2c36.9-29.3,60.5-74.6,60.5-125.3c0-17.4-2.8-34.2-8-49.9c-4-2-10.6-4.2-14.6-4.7
		c-1.2,4.5-5.1,11-16.5,13.2c-2,0.4-5.1,0.6-8.4,0.6c-9.2,0-21.6-2.2-25-10.6c-2-5.1,0.4-10.8,5.5-12.8c3.7-1.6,8.1-0.4,10.8,2.6
		c3.3,1.2,11,1.6,14.7,0.8c0.6-4.7,3.3-8.6,7.5-11c4.6-2.6,10.3-2.7,16-1.8c-5.1-9.7-11.1-18.9-18-27.3c-2.1-0.8-3.9-2.4-5.1-4.4
		c-0.5-0.8-0.8-1.7-1-2.7c-9.3-10.2-20-19.1-31.7-26.6c-0.2,0.4-0.3,0.8-0.5,1.2c-1.8,3.5-5.3,5.5-8.8,5.5c-1.4,0-2.9-0.2-4.3-1
		c-4.9-2.4-6.9-8.3-4.5-13.2c0.2-0.4,0.3-1.3,0.1-2.6c-20.7-9.8-43.9-15.3-68.3-15.3c-0.4,0-0.8,0-1.3,0c7.5,9.2,7.5,22.9,7.5,35.1
		c0,6.7,2.8,10.8,4.7,11.6c1,0.4,2.2-0.6,3.1-1.6c3.9-3.7,10-3.7,13.9,0c3.7,3.9,3.7,10,0,13.9c-4.7,4.9-10.6,7.5-16.5,7.5
		c-2.6,0-5.3-0.6-7.9-1.6c-10.2-4.3-16.9-15.9-16.9-29.9c0-8.6,0-20.2-3.7-23.4c-2.2-1.8-6.9-1.2-9.4-0.8c-5,0.7-9.7-2.2-11.1-6.6
		c-16.7,4-32.3,10.6-46.5,19.3c4.9,2.3,10.7,3.8,17.5,4.2c5.3,0.2,9.4,4.7,9.2,10.2c-0.2,5.1-4.7,9.2-9.8,9.2c-0.2,0-0.4,0-0.6,0
		c-13.9-0.6-25.1-4.9-33.9-11.1C95.8,97.8,84.2,111,75,125.9c0.5-0.3,0.9-0.5,1.3-0.7C78.8,123.8,81.3,122.2,83.9,121z M298,269.4
		c5.5-2.9,8.4-8.6,9-17.3c0.8-15.7,5.5-26.3,13.9-32.8c12.6-9.4,29.3-5.5,37.3-3.7c5.3,1.2,8.4,6.5,7.5,11.8
		c-1.2,5.3-6.5,8.6-11.8,7.5c-7.9-1.8-16.5-3.1-21,0.2c-4.5,3.3-5.9,11.8-6.3,18.3c-1.2,19.6-11.2,29.1-19.4,33.4
		c-6.3,3.3-13.4,4.7-20.2,4.7c-8.4,0-16.5-2.2-22.2-5.5c-4.7-2.8-6.3-8.6-3.5-13.4c2.8-4.7,8.6-6.3,13.4-3.5
		C279.4,271.7,290.4,273.5,298,269.4z M259.7,133.4c4.1-10.6,11.4-16.9,19.3-17.1h0.2c5.3,0,9.6,4.3,9.8,9.6c0,4.9-3.5,9-8.3,9.8
		c-1.6,1.4-3.9,5.9-4.5,11.2c-0.4,3.3,0.4,6.3,1.8,7.7c9.4,9.2,16.5,25.1,16.5,37.1c0,5.5-1.6,9.8-4.7,13c-1.8,2-4.3,2.9-6.9,2.9
		c-2.4,0-4.9-1-6.9-2.9c-3.5-3.3-3.9-8.6-1.2-12.6c0.4-3.9-3.3-16.5-10.6-23.6C254.2,158.7,255.6,143.4,259.7,133.4z M158.7,281.9
		c-1.2,0.4-2.4,0.6-3.3,0.6c-3.9,0-7.7-2.4-9.2-6.3c-2.6-6.5-5.9-9-7.9-9.6c-1.6,6.3-7.7,12.8-20.8,12.8c-13-0.2-26.5-6.7-27.7-18.9
		c-0.6-5.3,3.3-10,8.8-10.6c4.9-0.4,9.4,2.9,10.4,7.7c2,1.6,7.5,2.6,10.6,2c1.8-6.7,7.5-11.6,14.9-12.6c10-1.4,23.2,4.9,29.9,22.2
		C166.4,274.3,163.9,280,158.7,281.9z M208.3,146.8c1.4-5.3,6.7-8.6,12-7.3c5.3,1.4,8.6,6.7,7.3,12c-0.6,2.4,2.6,11.6,6.5,16.7
		c5.3,1.2,8.4,6.3,7.5,11.6c-0.8,3.9-3.3,6.9-7.1,8.1c-1,0.2-2,0.4-3.5,0.4c-2.6,0-5.7-1-8.8-3.9
		C216.5,179.2,204.7,160.9,208.3,146.8z M202,260.9c4.9-2.4,10.8-0.2,13.2,4.7c2.2,4.9,0.2,10.8-4.7,13.2c-2,0.8-3.7,3.9-4.5,7.7
		c-1,4.1-0.4,7.5,0.2,9c7.3-0.6,13.8,2.8,17.7,9.2c6.5,10.6,5.3,30.1-2.6,40.9c-1.8,2.8-4.9,4.1-7.9,4.1c-2,0-3.9-0.8-5.7-2
		c-4.3-3.1-5.3-9.2-2.4-13.8c2.6-3.5,4.3-14.9,1.8-18.9c-9.2,1.2-17.1-4.5-20-14.3C182.9,287.2,188,267.6,202,260.9z M136.3,158.2
		c3.1-4.3,9.4-5.3,13.8-2.2c2.9,2.2,4.3,5.7,3.9,8.8c2.9,3.7,11.4,10.8,16.7,15.1c6.1,5.3,12.6,10.6,17.1,15.5
		c4.7,5.1,5.7,11.4,2.9,16.9c-4.9,9.2-19.6,11.4-29.9,11.4c-3.3,0-6.1-0.2-8.1-0.4c-13.4-1.8-17.3-7.9-18.3-12.8
		c-1-5.3,2.4-10.4,7.7-11.6c4.1-1,8.3,1,10.4,4.3c3.3,1,10.2,1.2,15.5,0.4c-3.1-2.8-6.5-5.5-10-8.4c-5.9-4.9-12.2-10-16.5-14.7
		C133.6,172.1,131.8,164.4,136.3,158.2z M113.2,164.8c7.1,5.7,10.6,12.2,10.2,19.1c-0.6,12.6-12.8,20.8-24.8,28.7l-0.8,0.6
		c-1.8,1-3.5,1.6-5.5,1.6c-3.1,0-6.3-1.6-8.3-4.3c-2.9-4.5-1.8-10.6,2.8-13.6l0.8-0.6c5.3-3.3,14.9-9.8,15.9-13.4
		c-0.2-0.4-1-1.4-2.8-2.9c-4.1-3.3-4.7-9.6-1.4-13.8C102.8,162.1,109,161.5,113.2,164.8z"/>
	<path fill="#9B769B" d="M484.4,294.1c0.2,0.3,0.6,0.6,1,1c2.9,2.3,5.2,4.9,7,7.8c1.2-5.3,2.2-10.7,3-16.2
		C491.8,289,488.1,291.5,484.4,294.1z"/>
	<path fill="#9B769B" d="M444.6,329.9c8.6,4.3,9.8,14.3,10.6,21.6c0,0.4,0,0.6,0,0.8c2.2,0.8,4.3,2.2,5.7,4.3
		c2.9,4.7,1.6,10.6-2.9,13.6c-3.1,2-5.9,2.6-8.3,2.6s-4.1-0.6-5.3-1.2c-7.1-3.3-7.9-11.4-8.6-17.7c-0.2-1.4-0.4-2.9-0.6-4.5
		c-0.2,0-0.4,0.2-0.8,0.4c-4.9,2.9-14.9,9.1-22.4,2.5c-8,7.3-15.9,14.9-23.8,22.8c-9.4,9.5-18.5,19-27.1,28.6
		c1.7,3.2,1.6,7.2-0.6,10.5c-0.6,2.9,0.4,11,3.9,15.1c1.4,1.6,2.4,1.6,3.3,1.4c5.3-0.8,10.4,2.9,11.2,8.3c0.8,5.3-2.9,10.4-8.3,11.2
		c-1.2,0.2-2.4,0.2-3.5,0.2c-9,0-17.1-5.5-21.8-14.9c-1.4-2.7-2.5-6.1-3.3-9.7c-20,24-37,47.6-50.5,69.8c8.9-1.5,17.7-3.6,26.2-6.1
		c6.7-14.9,26.6-20.4,45-17.9c24.1-12.4,45.9-28.6,64.6-47.8c-2.5-2-4-5.1-3.6-8.5c-0.8,0.4-1.6,0.8-2.2,1.4
		c-4.1,3.7-10.4,3.3-13.9-0.8c-3.7-4.1-3.3-10.4,0.8-13.9c6.9-6.3,18.3-10,26.7-5.3c2.1,1.1,5.9,4,7.5,9.9
		c16.1-19.9,29.2-42.3,38.6-66.6c-0.9-3-1.1-6.3-1.4-9.9c-0.6-8.8-1.4-15.3-6.5-19.3c-1.9-1.6-3.5-3.3-4.9-5.2
		c-9.6,7.1-19.4,14.8-29.3,23C441,328.6,442.8,329,444.6,329.9z"/>
	<path fill="#A49BA4" d="M187,300.8c2.9,9.8,10.8,15.5,20,14.3c2.6,3.9,0.8,15.3-1.8,18.9c-2.9,4.5-2,10.6,2.4,13.8
		c1.8,1.2,3.7,2,5.7,2c2.9,0,6.1-1.4,7.9-4.1c7.9-10.8,9-30.3,2.6-40.9c-3.9-6.5-10.4-9.8-17.7-9.2c-0.6-1.6-1.2-4.9-0.2-9
		c0.8-3.7,2.6-6.9,4.5-7.7c4.9-2.4,6.9-8.3,4.7-13.2c-2.4-4.9-8.3-7.1-13.2-4.7C188,267.6,182.9,287.2,187,300.8z"/>
	<path fill="#A49BA4" d="M230.8,188.2c1.6,0,2.6-0.2,3.5-0.4c3.7-1.2,6.3-4.1,7.1-8.1c1-5.3-2.2-10.4-7.5-11.6
		c-3.9-5.1-7.1-14.3-6.5-16.7c1.4-5.3-2-10.6-7.3-12c-5.3-1.4-10.6,2-12,7.3c-3.5,14.1,8.3,32.4,13.8,37.5
		C225.1,187.2,228.3,188.2,230.8,188.2z"/>
	<path fill="#A49BA4" d="M184.5,61.5c2.6-0.4,7.3-1,9.4,0.8c3.7,3.1,3.7,14.7,3.7,23.4c0,13.9,6.7,25.5,16.9,29.9
		c2.6,1,5.3,1.6,7.9,1.6c5.9,0,11.8-2.6,16.5-7.5c3.7-3.9,3.7-10,0-13.9c-3.9-3.7-10-3.7-13.9,0c-1,1-2.2,2-3.1,1.6
		c-2-0.8-4.7-4.9-4.7-11.6c0-12.3,0-25.9-7.5-35.1c-0.9-1.1-1.9-2.2-3.1-3.2c-6.3-5.3-14.7-6.9-25.3-5.1c-5.3,1-8.8,6.1-8.1,11.4
		c0.1,0.4,0.2,0.9,0.3,1.3C174.8,59.3,179.5,62.2,184.5,61.5z"/>
	<path fill="#A49BA4" d="M192.7,391.2c-5.7,2.4-12.6-0.4-13.9-2.4c0.2-0.4,0.6-1.4,2-2.8c3.7-3.9,3.7-10-0.2-13.9
		c-3.9-3.7-10-3.7-13.9,0.2c-8.4,8.6-10,18.7-4.3,27.3c5.1,7.7,15.3,12,25.5,12c4.1,0,8.3-0.8,12.2-2.2c5.1-2,7.5-7.7,5.5-12.8
		C203.5,391.6,197.8,389.2,192.7,391.2z"/>
	<path fill="#A49BA4" d="M279,68.4c-2.4,4.9-0.4,10.8,4.5,13.2c1.4,0.8,2.9,1,4.3,1c3.5,0,7.1-2,8.8-5.5c0.2-0.4,0.3-0.8,0.5-1.2
		c4.4-10.6-0.2-23.3-6.2-32c-7.1-10-16.3-15.7-24.8-14.9c-5.3,0.6-9.4,5.3-8.8,10.6c0.6,5.3,5.1,9.2,10.4,8.8
		c1.8,0.6,6.3,4.3,9.2,10.6c1.3,2.8,1.9,5.1,2.1,6.8C279.2,67,279.1,67.9,279,68.4z"/>
	<path fill="#A49BA4" d="M274.7,269c-4.7-2.8-10.6-1.2-13.4,3.5c-2.8,4.7-1.2,10.6,3.5,13.4c5.7,3.3,13.8,5.5,22.2,5.5
		c6.9,0,13.9-1.4,20.2-4.7c8.3-4.3,18.3-13.8,19.4-33.4c0.4-6.5,1.8-14.9,6.3-18.3c4.5-3.3,13.2-2,21-0.2c5.3,1.2,10.6-2.2,11.8-7.5
		c1-5.3-2.2-10.6-7.5-11.8c-8.1-1.8-24.8-5.7-37.3,3.7c-8.4,6.5-13.2,17.1-13.9,32.8c-0.6,8.6-3.5,14.3-9,17.3
		C290.4,273.5,279.4,271.7,274.7,269z"/>
	<path fill="#A49BA4" d="M158.2,195.3c3.5,2.9,6.9,5.7,10,8.4c-5.3,0.8-12.2,0.6-15.5-0.4c-2.2-3.3-6.3-5.3-10.4-4.3
		c-5.3,1.2-8.6,6.3-7.7,11.6c1,4.9,4.9,11,18.3,12.8c2,0.2,4.7,0.4,8.1,0.4c10.2,0,25-2.2,29.9-11.4c2.8-5.5,1.8-11.8-2.9-16.9
		c-4.5-4.9-11-10.2-17.1-15.5c-5.3-4.3-13.8-11.4-16.7-15.1c0.4-3.1-1-6.7-3.9-8.8c-4.3-3.1-10.6-2.2-13.8,2.2
		c-4.5,6.3-2.8,13.9,5.3,22.4C146,185.3,152.3,190.4,158.2,195.3z"/>
	<path fill="#A49BA4" d="M336.9,138.7c-4.1,2.4-6.9,6.3-7.5,11c-3.7,0.8-11.4,0.4-14.7-0.8c-2.8-2.9-7.1-4.1-10.8-2.6
		c-5.1,2-7.5,7.7-5.5,12.8c3.3,8.4,15.7,10.6,25,10.6c3.3,0,6.5-0.2,8.4-0.6c11.4-2.2,15.3-8.6,16.5-13.2c4,0.5,10.6,2.7,14.6,4.7
		c0.6,0.3,1.1,0.6,1.5,0.8c4.7,2.8,10.6,1.4,13.6-3.1c2.8-4.7,1.4-10.6-3.1-13.6c-0.1-0.1-10.8-6.1-21.9-7.9
		C347.3,136,341.5,136.1,336.9,138.7z"/>
	<path fill="#A49BA4" d="M335,109.5c1.1,0.4,2.3,0.7,3.5,0.7c1.6,0,3.3-0.4,4.7-1.2c11-6.1,16.9-12.6,18.7-20
		c2.2-9.6-3.1-17.3-7.7-23.6c-3.1-4.5-6.1-8.6-6.1-12.6c0.2-5.5-4.1-10-9.6-10h-0.2c-5.3,0-9.6,4.3-9.8,9.6
		c-0.2,10.4,5.1,18.1,9.6,24.4c1.4,2,4.7,6.9,4.5,8.1c0-0.4-0.8,2.4-9,6.9c-3.9,2.1-5.7,6.6-4.7,10.7c0.2,0.9,0.5,1.8,1,2.7
		C331,107.2,332.8,108.7,335,109.5z"/>
	<path fill="#A49BA4" d="M248.5,362.3c-4.7-2.8-10.6-1.2-13.4,3.5c-0.6,1-0.9,2.1-1.1,3.2c-0.4,2.3,0,4.6,1.1,6.6
		c-0.2,1-0.4,2.4-0.6,3.3c-1.4,6.7-3.5,16.9,2.4,25c3.9,5.1,10.2,8.3,18.7,8.8c5.9,0.4,6.1,1,7.1,3.7c2.6,7.5,7.1,14.3,21.4,14.3
		c1.8,0,3.9-0.2,6.1-0.4c5.3-0.6,9.2-5.5,8.6-10.8c-0.6-5.3-5.5-9.2-10.8-8.6c-3.5,0.4-5.5,0.2-6.5,0.2c-0.2-0.4-0.2-0.8-0.4-1
		c-2.8-8.1-7.7-15.5-24.2-16.9c-3.1-0.2-4.3-1-4.3-1c-0.6-1.4,0.4-6.7,1-9.2c1.1-4.8,2.6-12.5-1.5-17.8
		C251.2,364.2,250,363.1,248.5,362.3z"/>
	<path fill="#A49BA4" d="M57.8,102c0,4.5-2.4,13.6-3.5,18.3c-1.6,5.7-2.8,10.6-3.1,14.7c-0.6,8.1,3.3,12,5.9,13.6
		c1.8,1.2,3.5,1.8,5.4,2c0.6,0.1,1.2,0.1,1.9,0.1c6.5,0,13.6-3.9,21.6-8.4c2.6-1.4,4.7-2.8,6.9-3.7c4.9-2.4,6.9-8.3,4.3-13.2
		c-2.4-4.9-8.3-6.9-13.2-4.3c-2.6,1.2-5.1,2.8-7.7,4.1c-0.4,0.2-0.8,0.5-1.3,0.7c-0.7,0.4-1.5,0.9-2.3,1.2c0.2-0.6,0.4-1.4,0.6-2
		c3.5-13.6,7.1-27.7,0.4-36.5c-2.3-3.1-5.5-5-9.5-5.6c-0.1,0-0.2,0-0.3-0.1c-4.1,4.5-8.1,9.2-11.8,14.1c0,0.1,0.1,0.1,0.2,0.2
		C53.6,99.7,55.5,101.2,57.8,102z"/>
	<path fill="#A49BA4" d="M247.5,0.2C232,0.4,216.9,2,202.2,4.7c0.8,0.6,2,1,3.1,1.4c6.7,1.4,13.6,3.1,19.3,5.1
		c-2,2.4-2.9,5.5-2.2,8.6c1,4.5,5.1,7.7,9.6,7.7c0.8,0,1.4,0,2.2-0.2c5.3-1.2,19.6-4.3,19.6-15.9C253.8,8.8,253.8,4.7,247.5,0.2z"/>
	<path fill="#A49BA4" d="M134.6,247c-7.5,1-13.2,5.9-14.9,12.6c-3.1,0.6-8.6-0.4-10.6-2c-1-4.7-5.5-8.1-10.4-7.7
		c-5.5,0.6-9.4,5.3-8.8,10.6c1.2,12.2,14.7,18.7,27.7,18.9c13.2,0,19.3-6.5,20.8-12.8c2,0.6,5.3,3.1,7.9,9.6
		c1.6,3.9,5.3,6.3,9.2,6.3c1,0,2.2-0.2,3.3-0.6c5.1-2,7.7-7.7,5.7-12.8C157.8,251.9,144.6,245.6,134.6,247z"/>
	<path fill="#A49BA4" d="M293.3,318.7c-5.3,0.6-9.2,5.5-8.4,11c0.5,4.3,4.1,11.1,9.4,17.6c6.9,8.5,16.7,16.5,25.9,17.4
		c7.9,0.8,14.5-2.9,18.3-10.4c1.2,1,2.6,2.2,3.7,3.1c6.7,5.9,18.1,15.7,31.2,15.7c7.3,0.2,15.1-2.9,22.8-11.6
		c3.5-4.1,3.3-10.2-0.8-13.9c-4.1-3.5-10.2-3.3-13.9,0.8c-7.1,7.9-11.8,6.9-26.5-5.7c-7.3-6.3-14.1-12.4-22.6-10
		c-3.5,1-8.3,3.7-10.8,11.4c-0.2,0.4-0.2,0.6-0.4,0.8c-2.5-1-7-4.7-10.8-8.9c-2.9-3.1-5.4-6.5-6.3-9.2
		C303.1,321.6,298.4,318.1,293.3,318.7z"/>
	<path fill="#A49BA4" d="M236,457.4c-12.4-2.8-22.4,1.8-26.7,12.2c-3.5,8.6-6.1,13.4-7.9,15.7c-3.3-2.4-8.1-2.4-11.6,0.4
		c-1.9,1.5-3.2,3.6-3.7,5.9c0,0.1,0,0.1-0.1,0.2c9.8,2.6,20,4.7,30.5,6.1c0.1-0.1,0.1-0.2,0.2-0.3c3.8-5.1,7.1-12.1,10.6-20.4
		c0.2-0.6,0.4-0.8,0.4-0.8c0.4-0.2,3.7-0.8,10.4,2.8c11.4,5.9,19.6,16.1,19.8,19.6c0,0.3,0,0.6,0,0.8c0,0.1,0,0.2,0,0.3
		c6.7-0.2,13.2-0.6,19.6-1.4c0-0.1,0-0.2,0-0.3C277.1,480.7,252.5,461.1,236,457.4z"/>
	<path fill="#A49BA4" d="M147.7,353.6c3.1-4.5,2-10.6-2.6-13.8c-19.3-13.2-34.8-18.7-46.4-16.1c-0.3,0.1-0.7,0.2-1,0.3
		c-5.8,1.5-10.6,4.9-13.7,9.9c-4.9,7.9-3.3,16.3-2.2,22.6c0.2,1.6,0.6,3.7,0.8,5.3c-1.2,0.4-3.3,0.8-7.7,0.6
		c-5.5-0.2-9.8,4.1-10,9.6c-0.2,5.5,4.1,9.8,9.6,10c0.6,0,1.2,0,1.8,0c7.1,0,16.3-1,21.8-7.5c5.9-6.9,4.3-15.3,3.1-21.4
		c-0.6-3.3-1.4-7.5-0.4-8.8c0.2-0.8,0.8-1.2,1.8-1.4c4.5-1,14.9,2,31.2,13.2c3.3,2.3,7.5,2.3,10.8,0.3
		C145.9,355.8,146.9,354.8,147.7,353.6z"/>
	<path fill="#A49BA4" d="M100.8,180c1.8,1.6,2.6,2.6,2.8,2.9c-1,3.5-10.6,10-15.9,13.4l-0.8,0.6c-4.5,2.9-5.7,9-2.8,13.6
		c2,2.8,5.1,4.3,8.3,4.3c2,0,3.7-0.6,5.5-1.6l0.8-0.6c12-7.9,24.2-16.1,24.8-28.7c0.4-6.9-3.1-13.4-10.2-19.1
		c-4.1-3.3-10.4-2.8-13.8,1.4C96.1,170.3,96.7,176.6,100.8,180z"/>
	<path fill="#A49BA4" d="M64.2,229.3c-2.2-4.9-8-7.1-12.9-4.9c0,0,0,0,0,0c-1,0.4-2.6-1.2-3.3-2c-3.1-3.3-4.9-9.6-2.8-13.6
		c2.4-4.9,0.8-11-3.9-13.6c-4.7-2.8-10.8-1-13.4,3.7c-7.1,12.4-2.8,27.9,5.3,36.5c5.1,5.5,11.4,8.4,17.7,8.4c1.1,0,2.2-0.1,3.3-0.3
		c1.7-0.3,3.5-0.8,5.2-1.5C64.2,240.1,66.4,234.2,64.2,229.3z"/>
	<path fill="#A49BA4" d="M367.2,450.3c1.2,0,2.4,0,3.5-0.2c5.3-0.8,9-5.9,8.3-11.2c-0.8-5.3-5.9-9-11.2-8.3c-1,0.2-2,0.2-3.3-1.4
		c-3.5-4.1-4.5-12.2-3.9-15.1c2.2-3.3,2.4-7.3,0.6-10.5c-0.4-0.8-1-1.6-1.6-2.3c-3.7-3.9-10-3.9-13.9,0c-5.3,5.3-5.5,15.5-3.5,24.3
		c0.8,3.6,2,6.9,3.3,9.7C350.1,444.8,358.2,450.3,367.2,450.3z"/>
	<path fill="#A49BA4" d="M84.1,427.3c0-0.2,0-0.6,0-0.8c-1.2-10.4-5.7-22-29.9-36.3c-3.5-2.1-7.6-1.8-10.7,0.3c0,0-0.1,0-0.1,0
		c11.2,16.5,24.6,31.8,39.5,45.2c0,0,0-0.1,0.1-0.1C84.5,433.3,85.1,430.2,84.1,427.3z"/>
	<path fill="#A49BA4" d="M17.3,328.9c4.3,0,8.3-2.9,9.4-7.3c1.4-5.3-1.8-10.6-7.1-12c-6.9-1.8-11.4-4.5-12.2-7.7
		c-0.8-2.8,1-7.1,4.1-10.6c2.9-3.1,7.3-10.2,2.8-22.2c-2.5-6.8-7.9-14.7-14.1-20.8c-0.1-0.1-0.1-0.2-0.2-0.2c0,0.6,0,1.2,0,2
		c0,27.1,4.3,53.4,12.4,77.8c0.1,0,0.2,0,0.3,0.1c0.7,0.2,1.4,0.3,2.1,0.5C15.7,328.7,16.5,328.9,17.3,328.9z"/>
	<path fill="#A49BA4" d="M35.4,127.5c0-1.4-0.4-2.7-1-3.9c0,0,0,0,0-0.1c-9,15.3-16.5,31.8-22,48.9c0,0,0,0,0.1,0
		C24.4,165.2,36.1,149.5,35.4,127.5z"/>
	<path fill="#A49BA4" d="M143.8,97.8c5.1,0,9.6-4.1,9.8-9.2c0.2-5.5-3.9-10-9.2-10.2c-6.8-0.3-12.6-1.9-17.5-4.2
		c-12.5-5.8-19.6-16.6-23.6-26.5c-5.5,3.9-10.8,8.3-15.9,12.6c4.8,9.9,11.9,19.4,21.9,26.5c8.9,6.2,20,10.4,33.9,11.1
		C143.4,97.8,143.6,97.8,143.8,97.8z"/>
	<path fill="#A49BA4" d="M135.8,448.9c-1.6-2.6-2.6-4.7-3.3-6.5c1.6,0.8,3.5,2,5.9,3.5c4.5,2.9,10.6,1.8,13.6-2.8s1.8-10.6-2.8-13.6
		c-5.5-3.7-22.2-14.9-33-4.7c-7.3,6.9-6.3,19.6,2.6,34.2c1.2,1.9,1.8,3.4,1.9,4.5c0,0.1,0,0.3,0,0.4c5.7,3.5,11.6,6.7,17.7,9.6
		c0-0.1,0.1-0.1,0.1-0.2c0.6-0.9,1.1-2.1,1.5-3.4C141.7,463.7,140.3,456.6,135.8,448.9z"/>
	<path fill="#A49BA4" d="M274.9,192.1c-2.8,3.9-2.4,9.2,1.2,12.6c2,2,4.5,2.9,6.9,2.9c2.6,0,5.1-1,6.9-2.9c3.1-3.1,4.7-7.5,4.7-13
		c0-12-7.1-27.9-16.5-37.1c-1.4-1.4-2.2-4.3-1.8-7.7c0.6-5.3,2.9-9.8,4.5-11.2c4.7-0.8,8.3-4.9,8.3-9.8c-0.2-5.3-4.5-9.6-9.8-9.6
		H279c-7.9,0.2-15.1,6.5-19.3,17.1c-4.1,10-5.5,25.3,4.5,35.2C271.5,175.6,275.2,188.2,274.9,192.1z"/>
	<path fill="#A49BA4" d="M317.8,489.4c-0.2,0.4-0.4,0.8-0.6,1.3c0,0.1-0.1,0.2-0.1,0.3c16.9-4.7,33.2-11.2,48.5-19.1
		c-0.2,0-0.4,0-0.5-0.1c-0.7-0.1-1.5-0.2-2.2-0.3C344.4,469,324.5,474.5,317.8,489.4z"/>
	<path fill="#A49BA4" d="M493.5,223.8c1.5,2.1,3.5,3.9,5.6,5.2c0,0,0.1,0,0.1,0.1c-1.4-16.7-4.3-33-8.8-48.5c0,0.1,0,0.2,0,0.3
		C486.7,203.4,487.5,215.6,493.5,223.8z"/>
	<path fill="#A49BA4" d="M435.2,396.5c-8.4-4.7-19.8-1-26.7,5.3c-4.1,3.5-4.5,9.8-0.8,13.9c3.5,4.1,9.8,4.5,13.9,0.8
		c0.6-0.6,1.4-1,2.2-1.4c-0.3,3.4,1.1,6.6,3.6,8.5c0.4,0.3,0.9,0.6,1.4,0.9c0.1,0.1,0.2,0.1,0.3,0.2c4.9-5.3,9.6-10.6,14.1-16.1
		c0,0,0-0.1,0-0.1c-0.1-0.8-0.3-1.5-0.5-2.2C441.1,400.5,437.3,397.5,435.2,396.5z"/>
	<path fill="#A49BA4" d="M486.4,260.1c-10,5.7-21,17.7-22,30.6c-0.4,5.4,1.1,10.4,4.2,14.7c1.3,1.9,3,3.6,4.9,5.2
		c5.1,3.9,5.9,10.4,6.5,19.3c0.3,3.6,0.5,6.9,1.4,9.9c0.2,0.8,0.5,1.5,0.8,2.3c0,0.2,0.1,0.3,0.2,0.5c0,0,0,0.1,0,0.1
		c1.6-4,3-8,4.4-12.1c0.2-0.7,0.5-1.4,0.7-2c0.9-2.7,1.8-5.5,2.6-8.3c0.2-0.8,0.5-1.7,0.7-2.5c1.2-4.1,2.3-8.2,3.2-12.4
		c0,0,0-0.1-0.1-0.1c-0.4-0.8-0.9-1.6-1.4-2.4c-1.8-2.8-4.1-5.5-7-7.8c-0.5-0.4-0.8-0.7-1-1c-0.5-0.7-0.5-1.3-0.5-2
		c0.4-4.5,5.9-11.4,12.2-14.9c1.1-0.5,1.9-1.4,2.7-2.2c0.1-0.1,0.2-0.2,0.3-0.3c0.4-3.5,0.6-7.3,0.8-10.8c-0.1-0.1-0.1-0.2-0.2-0.3
		C496.8,259.1,491.1,257.6,486.4,260.1z"/>
	<path fill="#A49BA4" d="M433.2,177.6c-8.8-7.9-18.9-10.6-20-11c-5.3-1.4-10.6,1.6-12,6.9c-1.4,5.3,1.6,10.6,6.9,12
		c2.6,0.8,24.8,7.5,18.7,30.8c-1.2,5.3,2,10.6,7.1,12c0.8,0.2,1.8,0.4,2.6,0.4c4.3,0,8.3-2.9,9.4-7.3
		C450.3,204.1,446,188.6,433.2,177.6z"/>
	<path fill="#A49BA4" d="M434.4,349.7c0.4-0.2,0.6-0.4,0.8-0.4c0.2,1.6,0.4,3.1,0.6,4.5c0.8,6.3,1.6,14.3,8.6,17.7
		c1.2,0.6,2.9,1.2,5.3,1.2s5.1-0.6,8.3-2.6c4.5-2.9,5.9-8.8,2.9-13.6c-1.4-2.2-3.5-3.5-5.7-4.3c0-0.2,0-0.4,0-0.8
		c-0.8-7.3-2-17.3-10.6-21.6c-1.8-0.8-3.6-1.3-5.3-1.5c-1.5-0.2-3-0.1-4.4,0.1c2.9-5.7,5.7-11.4,7.5-16.7c1.8-5.1-1-10.8-6.3-12.4
		c-5.1-1.8-10.8,1-12.4,6.3c-1.6,4.7-4.7,10.8-7.7,16.3c-6.9,13.4-11.8,23-4.3,30.1c0.1,0.1,0.2,0.1,0.2,0.2
		C419.5,358.8,429.5,352.6,434.4,349.7z"/>
	<path fill="#A49BA4" d="M462.5,148.7c-3.3,2-5.3,5.9-4.7,10c0.8,4.9,4.9,8.3,9.6,8.3c0.8,0,1.2,0,1.8,0c7-1.2,10.3-6.2,12.1-12.2
		c0-0.1,0.1-0.1,0.1-0.2c-3.9-9.6-8.6-19.1-13.8-28.1c0,0,0,0.1,0,0.1c-1.9,5.5-2.9,11.1-3.7,15.6
		C463.5,144.4,463.1,147.2,462.5,148.7z"/>
	<path fill="#A49BA4" d="M410.6,275.4c10.8,0,22.4-4.7,23.6-15.7c0.6-5.3-3.3-10.2-8.6-10.8c-4.5-0.6-8.6,2.2-10.2,6.3
		c-1.8,0.6-4.9,0.8-6.9,0.6c-1.8-2.9-4.9-4.7-8.4-4.7c-5.5,0-9.8,4.3-9.8,9.8c0,6.3,4.9,13.9,18.5,14.7
		C409.2,275.4,409.8,275.4,410.6,275.4z"/>
	<path fill="#A49BA4" d="M400.8,126.1c5.9,5.3,13.9,8.1,22.8,8.1c4.7,0,9.6-0.8,14.5-2.4c5.1-1.6,8.1-7.3,6.3-12.4
		c-1.6-5.1-7.3-8.1-12.4-6.3c-7.3,2.4-14.3,1.8-18.1-1.6c-3.7-3.3-3.3-9.2-2.6-13.8c1-5.3-2.4-10.4-7.7-11.6
		c-5.3-1-10.4,2.4-11.6,7.7C388.6,112,396.1,121.8,400.8,126.1z"/>
	<path fill="#A49BA4" d="M299,20.6c5.3,3.1,11.4,4.7,18.3,4.7c5.1,0,10.6-0.8,16.5-2.6c3.1-1,5.5-3.1,6.5-6c0,0,0,0,0-0.1
		c-5.1-2-10.4-3.7-15.6-5.4c-0.2-0.1-0.4-0.1-0.7-0.2c-1.8-0.6-3.6-1.1-5.4-1.6c-0.1,0-0.1,0-0.2-0.1c-10.8-3.1-21.8-5.5-33.1-7.1
		c0,0,0,0.1,0,0.1C285.8,5,288.9,14.6,299,20.6z"/>
	<path fill="#A49BA4" d="M389.6,44.8c-0.2,0.2-0.6,0.8-1.2,1.2c-4.1,3.5-4.5,9.8-0.8,13.9c2,2.2,4.7,3.3,7.3,3.3
		c2.4,0,4.7-0.8,6.5-2.6c2.2-1.8,3.7-3.7,4.9-5.9c0,0,0,0,0,0c-0.3-0.2-0.5-0.4-0.8-0.6c-1.1-0.9-2.3-1.8-3.4-2.7
		c-0.5-0.4-1-0.8-1.5-1.2c-1.4-1-2.8-2.1-4.2-3.1c-0.3-0.2-0.5-0.4-0.8-0.6c-3.5-2.5-7.1-4.9-10.8-7.2C387,41.5,389,43.4,389.6,44.8
		z"/>
	<path fill="#A49BA4" d="M134.6,33.2c3.7,2.6,9.4,6.3,15.7,6.3c2.2,0,4.3-0.4,6.7-1.6c9-4.3,11.2-15.5,12-23.6c0-0.3,0-0.6,0-0.9
		c0,0,0-0.1,0-0.1c-11.1,3.9-21.9,8.5-32.2,13.8c-2,1-3.9,2-5.8,3.1c-0.3,0.2-0.6,0.3-0.9,0.5c0,0,0,0,0,0c0.4,0.4,1,0.6,1.5,0.8
		C132.2,31.6,133.6,32.6,134.6,33.2z"/>
</g>
</svg>
