<svg width="640" height="480" xmlns="http://www.w3.org/2000/svg" xmlns:xlink="http://www.w3.org/1999/xlink">

 <defs>
  <svg viewBox="0 0 500 500" height="500px" width="500px" y="0px" x="0px" id="svg_10" xmlns:xlink="http://www.w3.org/1999/xlink">
   <g>
    <path d="m497.200012,287.600006c1.799988,-12.299988 2.799988,-24.799988 2.799988,-37.599991c0,-138.100014 -111.899994,-250.000015 -250,-250.000015s-250,111.900002 -250,250s111.900002,250 250,250c14.799988,0 29.299988,-1.299988 43.399994,-3.799988c22.800018,-37.900024 56,-79.700012 96.600006,-120.300018c35.899994,-35.899994 73,-65.899994 107.200012,-88.299988zm-110.300018,-234.000008c0.899994,-1.100002 4.299988,0.200001 7.700012,2.900002c3.399994,2.700001 5.399994,5.799999 4.5,6.899998c-0.900024,1.100002 -4.300018,-0.199997 -7.700012,-2.899998c-3.399994,-2.700001 -5.399994,-5.799999 -4.5,-6.900002zm12.800018,44c-1.399994,1.400002 -4.700012,0.300003 -7.399994,-2.400002c-2.700012,-2.699997 -3.700012,-6 -2.399994,-7.400002s4.699982,-0.299995 7.399994,2.400002s3.799988,6.100006 2.399994,7.400002zm-52.200012,-48.899998c1.200012,0 2.200012,1 2.200012,2.200001c0,1.200001 -1,2.200001 -2.200012,2.200001c-1.200012,0 -2.200012,-1 -2.200012,-2.200001c0,-1.200001 1,-2.200001 2.200012,-2.200001zm-315.299999,302.500011c-7.699999,-16.700012 -9.799999,-26.5 -12.799999,-38.299988s14.699997,-1.400024 19.700001,10.799988c7.099998,17.5 0.799999,44.199982 -6.900002,27.5zm68.899998,85.199982c-2.099998,2.100006 -7.300003,0.5 -11.5,-3.799988c-4.199997,-4.200012 -5.900002,-9.400024 -3.800003,-11.5c2.100006,-2.100006 7.300003,-0.5 11.5,3.799988c4.200005,4.200012 5.900002,9.399994 3.800003,11.5zm-14.199997,-65.299988c0,-1.200012 1,-2.200012 2.199997,-2.200012c1.200005,0 2.200005,1 2.200005,2.200012c0,1.200012 -1,2.200012 -2.200005,2.200012c-1.299995,-0.100006 -2.199997,-1.000031 -2.199997,-2.200012zm70.799995,78.699982c-0.899994,1.200012 -3.600006,0.799988 -6.100006,-1c-2.5,-1.799988 -3.799988,-4.200012 -2.899994,-5.399994c0.899994,-1.200012 3.600006,-0.800018 6.100006,1c2.5,1.700012 3.800003,4.100006 2.899994,5.399994zm128.699997,-55.299988c-3.5,13.600006 -9.399994,31.299988 -24.200012,36.200012c-14.699982,4.899994 -67.799988,2.899994 -76.699982,0s-8.800003,-15.100006 0,-17.900024c8.800003,-2.799988 9.800003,-16.899994 0,-18.299988c-9.800003,-1.399994 -6.5,-9.799988 0,-11c18.5,-3.5 38.299988,-12 56,-7.5c17.700012,4.5 48.200012,5.100006 44.899994,18.5zm-23.699982,-54.100006c0.100006,2.700012 -0.899994,5.299988 -3.5,6.799988c-7.899994,4.900024 -30.5,15.700012 -51.099991,17.700012c-20.600006,2 -35.400009,-10.799988 -48.200012,-11.799988c-10.899994,-0.800018 -17.5,-10.700012 -11.300003,-15.800018c-58.299995,-24 -99.399994,-81.399994 -99.399994,-148.300003c0,-88.599991 71.800003,-160.399986 160.399994,-160.399986c88.600006,0 160.399994,71.800003 160.399994,160.399986c0,7.700012 -0.600006,15.300003 -1.600006,22.800003c29.300018,0.900009 31.399994,13.800003 56.100006,16.900009c23.799988,2.899994 21,14.299988 -5.899994,14.699997c-21,0.399994 -28.300018,14.5 -51.300018,14.5c-4.199982,0 -8.199982,-0.5 -12.199982,-1.399994c-18.100006,39.200012 -51.5,69.600006 -92.399994,83.899994z" fill="#C1CD00"/>
    <path d="m313.5,221.699997c12,0 32,-9.199997 47.200012,-9.800003c2.799988,-0.099991 5.399994,-0.099991 7.799988,0c1.100006,-7.399994 1.600006,-15 1.600006,-22.800003c0,-88.599991 -71.800018,-160.399986 -160.399994,-160.399986c-88.600006,0 -160.399998,71.800003 -160.399998,160.399986c0,67.000015 41.099995,124.300003 99.399998,148.300003c1.100006,-0.899994 2.5,-1.600006 4.400009,-2.100006c12.799988,-3.5 29.899994,-25.899994 49.099991,-20.199982c16.100006,4.899994 42.300003,18.5 50.100006,15.5c5.299988,-2 10.199982,4.199982 10.299988,9.899994c40.899994,-14.299988 74.300018,-44.799988 92.399994,-83.800018c-16.799988,-3.599991 -31.899994,-12.899979 -47,-12.799988c-21.100006,0.200012 -17.899994,-22.199997 5.5,-22.199997zm-166.100006,-150.399994c-5.5,4.900002 -2.199997,15.699997 -11,22.400002c-8.800003,6.900002 -15.699997,14 -25.599998,14s-10.800003,-2.900002 -5.900002,-11.600006c4.900002,-8.799995 4.900002,-16.099998 20,-28.699997c11.300003,-9 28,-1 22.5,3.900002z" fill="#CAD424"/>
    <path d="m389.899994,376c-40.600006,40.600006 -73.799988,82.399994 -96.600006,120.299988c0,0.100006 -0.100006,0.100006 -0.100006,0.200012c105.300018,-18.299988 188.100006,-102.600006 204,-208.899994c0,0 0,0 -0.099976,0c-34.100006,22.399994 -71.200012,52.399994 -107.200012,88.399994z" fill="#BAC100"/>
    <ellipse ry="7.9" rx="2.6" cy="58.5" cx="393" fill="#CAD424" transform="matrix(-0.6271 0.7789 -0.7789 -0.6271 685.0751 -210.9431)"/>
    <circle r="2.2" cy="50.9" cx="347.5" fill="#CAD424"/>
    <ellipse ry="3.5" rx="6.9" cy="92.8" cx="394.8" fill="#CAD424" transform="matrix(-0.7071 -0.7071 0.7071 -0.7071 608.4111 437.5742)"/>
    <circle r="2.2" cy="371.1" cx="89" fill="#BAC100"/>
    <ellipse ry="5.5" rx="10.8" cy="428.8" cx="93.4" fill="#BAC100" transform="matrix(-0.7071 -0.7071 0.7071 -0.7071 -143.6814 798.0328)"/>
    <ellipse ry="5.5" rx="2.8" cy="446.6" cx="153.2" fill="#BAC100" transform="matrix(0.5827 -0.8127 0.8127 0.5827 -298.9759 310.9075)"/>
    <path d="m19.5,312.899994c2.9,11.799988 5.1,21.600006 12.799999,38.299988c7.700001,16.700012 14,-10 6.900002,-27.5c-5,-12.199982 -22.700001,-22.599976 -19.700001,-10.799988z" fill="#BAC100"/>
    <path d="m252.399994,330.600006c-7.899994,2.899994 -34,-10.600006 -50.100006,-15.5c-19.299988,-5.700012 -36.399994,16.700012 -49.099991,20.200012c-1.899994,0.5 -3.300003,1.199982 -4.399994,2.099976c-6.200012,5.100006 0.299988,14.900024 11.299988,15.800018c12.800003,1 27.5,13.799988 48.200012,11.799988c20.599991,-2 43.199997,-12.799988 51.099991,-17.699982c2.5,-1.600006 3.5,-4.200012 3.5,-6.800018c-0.299988,-5.799988 -5.199982,-11.899994 -10.5,-9.899994z" fill="#D1DA43"/>
    <path d="m125,67.400002c-15.099998,12.599998 -15.099998,19.900002 -20,28.699997c-4.900002,8.600006 -3.900002,11.600006 5.900002,11.600006s16.699997,-7.099998 25.599998,-14c8.800003,-6.700005 5.5,-17.5 11,-22.400002c5.399994,-4.900002 -11.300003,-12.900002 -22.5,-3.900002z" fill="#D1DA43"/>
    <path d="m241.5,376c-17.699997,-4.5 -37.5,3.899994 -56,7.5c-6.5,1.200012 -9.800003,9.600006 0,11c9.800003,1.399994 8.800003,15.5 0,18.299988c-8.800003,2.800018 -8.800003,14.900024 0,17.900024s61.900009,4.899994 76.700012,0c14.699982,-4.900024 20.599976,-22.600006 24.199982,-36.200012c3.300018,-13.399994 -27.199982,-14 -44.899994,-18.5z" fill="#BAC100"/>
    <path d="m418.600006,243.5c26.899994,-0.399994 29.700012,-11.800003 5.899994,-14.699997c-24.699982,-3.100006 -26.799988,-16.100006 -56.100006,-16.900009c-2.399994,-0.099991 -5,-0.099991 -7.799988,0c-15.100006,0.600006 -35.200012,9.800003 -47.200012,9.800003c-23.399994,0 -26.5,22.400009 -5.299988,22.200012c15.100006,-0.200012 30.200012,9.199997 47,12.800003c4,0.799988 8,1.399994 12.200012,1.399994c22.999969,0 30.299988,-14.200012 51.299988,-14.600006z" fill="#D1DA43"/>
   </g>
  </svg>
 </defs>
 <g>
  <title>Layer 1</title>
  <use x="0" y="0" transform="matrix(0.3199999928474426,0,0,0.3199999928474426,0,0) " id="svg_11" xlink:href="#svg_10"/>
 </g>
</svg>