<?xml version="1.0" encoding="utf-8"?>
<!-- Generator: Adobe Illustrator 18.0.0, SVG Export Plug-In . SVG Version: 6.00 Build 0)  -->
<!DOCTYPE svg PUBLIC "-//W3C//DTD SVG 1.1//EN" "http://www.w3.org/Graphics/SVG/1.1/DTD/svg11.dtd">
<svg version="1.1" xmlns="http://www.w3.org/2000/svg" xmlns:xlink="http://www.w3.org/1999/xlink" x="0px" y="0px"
	 viewBox="0 0 960 560" style="enable-background:new 0 0 960 560;" xml:space="preserve">
<style type="text/css">
	.Drop_x0020_Shadow{fill:none;}
	.Outer_x0020_Glow_x0020_5_x0020_pt{fill:none;}
	.Blue_x0020_Neon{fill:none;stroke:#8AACDA;stroke-width:7;stroke-linecap:round;stroke-linejoin:round;}
	.Chrome_x0020_Highlight{fill:url(#SVGID_1_);stroke:#FFFFFF;stroke-width:0.3629;stroke-miterlimit:1;}
	.Jive_GS{fill:#FFDD00;}
	.Alyssa_GS{fill:#A6D0E4;}
	.st0{fill:#FCFCFC;}
	.st1{opacity:0.87;}
	.st2{fill:#2D3743;}
	.st3{fill:#191919;}
	.st4{fill:#1E2225;}
	.st5{fill:#070609;}
	.st6{fill:#434551;}
	.st7{fill:#141414;}
	.st8{fill:#495056;}
	.st9{fill:#3F454B;}
	.st10{fill:#1F2228;}
</style>
<linearGradient id="SVGID_1_" gradientUnits="userSpaceOnUse" x1="0" y1="0" x2="4.489659e-011" y2="-1">
	<stop  offset="0" style="stop-color:#656565"/>
	<stop  offset="0.618" style="stop-color:#1B1B1B"/>
	<stop  offset="0.6292" style="stop-color:#545454"/>
	<stop  offset="0.9831" style="stop-color:#3E3E3E"/>
</linearGradient>
<g id="Layer_5">
	<rect x="-71.35" y="-30.09" class="st0" width="1061.84" height="645.72"/>
</g>
<g id="Layer_4">
	<g class="st1">
		
			<image style="overflow:visible;" width="1132" height="716" xlink:href="FBA86998.png"  transform="matrix(1 0 0 1 -104.4978 -64.7112)">
		</image>
	</g>
	<rect x="-71.11" y="-30.21" class="st1" width="1062.06" height="645.83"/>
</g>
<g id="Layer_3">
	<g>
		
			<image style="overflow:visible;opacity:0.75;" width="155" height="116" xlink:href="FBA86999.png"  transform="matrix(1 0 0 1 739 268)">
		</image>
		<g>
			<g>
				<path class="st2" d="M879.06,291.95l-0.23-1.77c-0.04-0.28-0.2-0.52-0.47-0.67c-0.98-0.56-3.28-1.83-7.48-2.66
					c-4.2-0.83-6.81-0.53-7.93-0.38c-0.28,0.04-0.52,0.2-0.69,0.44l-0.88,1.55l-0.34,0.33l-0.2,1.02l9.26,1.04l8.96,2.56l0.2-1.02
					L879.06,291.95z"/>
				<path class="st2" d="M776.26,271.67l0.88-1.55c0.14-0.25,0.38-0.41,0.69-0.44c1.12-0.14,3.73-0.45,7.93,0.38
					c4.2,0.83,6.5,2.1,7.48,2.66c0.25,0.14,0.41,0.38,0.47,0.67l0.23,1.77l0.19,0.43l-0.2,1.02l-8.96-2.56l-9.26-1.04l0.2-1.02
					L776.26,271.67z"/>
				<path class="st3" d="M887.69,358.58c0.18-8.12,1.02-36.07,1.02-36.07c0.25-10.63-7.15-17.73-7.15-17.73s0.12-4.74,0.13-7.74
					c-0.01-3-1.54-4.34-2.61-5.06c0,0,0.02,0.67-0.93,0.24s-3.79-1.84-7.35-2.54c-3.56-0.7-7.8-0.6-8.85-0.47
					c-1.06,0.13-0.57-0.78-0.57-0.78s-2,0.3-3.25,1.88c-1.25,1.57-3.5,7.62-3.5,7.62l-24.14-4.76c0,0-1.07,0.36-5.01-0.41
					c-3.94-0.78-4.79-1.52-4.79-1.52l-24.14-4.76c0,0,0.21-6.45-0.35-8.38c-0.56-1.93-2.29-2.97-2.29-2.97s0.1,1.02-0.83,0.5
					c-0.93-0.52-4.81-2.22-8.37-2.93c-3.56-0.7-6.73-0.48-7.77-0.44s-0.77-0.58-0.77-0.58c-1.27,0.27-3.18,0.92-4.34,3.69
					c-1.15,2.77-2.82,7.21-2.82,7.21s-9.54,3.76-13.34,13.68c0,0-9.84,26.2-12.76,33.75c-2.92,7.58-4.37,16.63,4.27,22.65
					s16.58,2.79,21.75-2.17c5.16-4.96,11.94-12.23,11.94-12.23s3.44,6.84,10.97,8.32c11.7,2.31,17.62-7.08,17.62-7.08l6.57,1.3
					l0.03,0.01l6.57,1.3c0,0,1.91,10.93,13.61,13.24c7.53,1.49,13.23-3.58,13.23-3.58s3.5,9.3,6.39,15.85s9.02,12.55,19.29,10.27
					C885.42,375.6,887.55,366.68,887.69,358.58z"/>
				<path class="st4" d="M868.99,298.91c-12.99-2.56-25.57,5.87-28.13,18.86c-0.46,2.34-0.55,4.65-0.36,6.9
					c-7.76-0.65-14.95,4.63-16.5,12.45c-1.66,8.41,3.8,16.55,12.21,18.21c8.09,1.6,15.92-3.38,17.99-11.25
					c1.72,0.79,3.57,1.4,5.5,1.78c12.99,2.56,25.57-5.87,28.13-18.86C890.39,314.02,881.95,301.47,868.99,298.91z"/>
				<path class="st4" d="M782.94,281.93c12.99,2.56,21.42,15.14,18.86,28.13c-0.46,2.34-1.25,4.51-2.29,6.52
					c7.42,2.34,12.07,9.96,10.53,17.79c-1.66,8.41-9.8,13.87-18.21,12.21c-8.09-1.6-13.44-9.17-12.37-17.24
					c-1.9,0.08-3.84-0.06-5.77-0.44c-12.99-2.56-21.42-15.14-18.86-28.13C757.4,287.78,769.98,279.37,782.94,281.93z"/>
				<path class="st5" d="M883.86,319.89l-10.3-2.03c-0.5-0.1-0.82-0.59-0.73-1.08l1.87-9.49c0.1-0.5-0.23-0.99-0.73-1.08
					l-11.56-2.28c-0.5-0.1-0.99,0.23-1.08,0.73l-1.87,9.49c-0.1,0.5-0.59,0.82-1.08,0.73l-10.3-2.03c-0.5-0.1-0.99,0.23-1.08,0.73
					l-2.21,11.18c-0.1,0.5,0.23,0.99,0.73,1.08l10.3,2.03c0.5,0.1,0.82,0.59,0.73,1.08l-1.87,9.49c-0.1,0.5,0.23,0.99,0.73,1.08
					l11.59,2.29c0.5,0.1,0.99-0.23,1.08-0.73l1.87-9.49c0.1-0.5,0.59-0.82,1.08-0.73l10.3,2.03c0.5,0.1,0.99-0.23,1.08-0.73
					l2.21-11.18C884.66,320.44,884.36,319.99,883.86,319.89z"/>
				<g>
					<circle class="st6" cx="866.95" cy="311.37" r="5.03"/>
					<circle class="st6" cx="862.42" cy="334.31" r="5.03"/>
				</g>
				<g>
					<circle class="st6" cx="876.16" cy="325.1" r="5.03"/>
					<circle class="st6" cx="853.22" cy="320.58" r="5.03"/>
				</g>
				<circle class="st7" cx="839.2" cy="340.13" r="11.87"/>
				<circle class="st2" cx="839.2" cy="340.13" r="9.46"/>
				<path class="st8" d="M830.34,318l0.67-3.39c0.06-0.29,0.36-0.44,0.64-0.3l5.21,2.79c0.36,0.19,0.25,0.75-0.16,0.79l-5.88,0.6
					C830.54,318.56,830.29,318.3,830.34,318z"/>
				<path class="st8" d="M810.46,313.35c-0.08,0.41-0.47,0.67-0.87,0.59l-4.82-0.95c-0.41-0.08-0.67-0.47-0.59-0.87l0.43-2.16
					c0.08-0.41,0.47-0.67,0.87-0.59l4.82,0.95c0.41,0.08,0.67,0.47,0.59,0.87L810.46,313.35z"/>
				<path class="st5" d="M760.75,296.02l10.3,2.03c0.5,0.1,0.99-0.23,1.08-0.73l1.87-9.49c0.1-0.5,0.59-0.82,1.08-0.73l11.59,2.29
					c0.5,0.1,0.82,0.59,0.73,1.08l-1.87,9.49c-0.1,0.5,0.23,0.99,0.73,1.08l10.3,2.03c0.5,0.1,0.82,0.59,0.73,1.08l-2.21,11.18
					c-0.1,0.5-0.59,0.82-1.08,0.73l-10.3-2.03c-0.5-0.1-0.99,0.23-1.08,0.73l-1.87,9.49c-0.1,0.5-0.59,0.82-1.08,0.73l-11.62-2.29
					c-0.5-0.1-0.82-0.59-0.73-1.08l1.88-9.52c0.1-0.5-0.23-0.99-0.73-1.08l-10.27-2.03c-0.5-0.1-0.82-0.59-0.73-1.08l2.21-11.18
					C759.76,296.25,760.25,295.92,760.75,296.02z"/>
				<circle class="st7" cx="794.83" cy="331.38" r="11.87"/>
				<circle class="st2" cx="794.83" cy="331.38" r="9.46"/>
				<g>
					<path class="st9" d="M779.38,312.71l-2.13-2.88c-0.29-0.39-0.81-0.49-1.23-0.24l-3.06,1.85c-0.24,0.13-0.37,0.35-0.42,0.61
						l-0.79,4.03c-0.1,0.5,0.22,1.01,0.75,1.12l5.2,1.03c0.5,0.1,1.01-0.22,1.12-0.75l0.79-4.03
						C779.59,313.17,779.52,312.92,779.38,312.71z"/>
					<path class="st9" d="M775.31,299.38l2.13,2.88c0.29,0.39,0.81,0.49,1.23,0.24l3.06-1.85c0.24-0.13,0.37-0.35,0.42-0.61
						l0.79-4.03c0.1-0.5-0.22-1.01-0.75-1.12l-5.14-1.01c-0.5-0.1-1.01,0.22-1.12,0.75l-0.79,4.03
						C775.1,298.88,775.17,299.17,775.31,299.38z"/>
				</g>
				<g>
					<path class="st9" d="M770.68,308.05l2.88-2.13c0.39-0.29,0.49-0.81,0.24-1.23l-1.85-3.06c-0.13-0.24-0.35-0.37-0.61-0.42
						l-4.03-0.79c-0.5-0.1-1.01,0.22-1.12,0.75l-1.03,5.2c-0.1,0.5,0.22,1.01,0.75,1.12l4.03,0.79
						C770.21,308.29,770.47,308.22,770.68,308.05z"/>
					<path class="st9" d="M784.01,304.01l-2.88,2.13c-0.39,0.29-0.49,0.81-0.24,1.23l1.85,3.06c0.13,0.24,0.35,0.37,0.61,0.42
						l4.03,0.79c0.5,0.1,1.01-0.22,1.12-0.75l1.03-5.2c0.1-0.5-0.22-1.01-0.75-1.12l-4.03-0.79
						C784.47,303.8,784.22,303.87,784.01,304.01z"/>
				</g>
				<g>
					<polygon class="st10" points="774.22,321.94 772.51,319.39 776.77,320.23 					"/>
					<polygon class="st10" points="780.5,290.12 782.2,292.7 777.94,291.86 					"/>
				</g>
				<g>
					<polygon class="st10" points="761.51,303.09 764.09,301.38 763.24,305.64 					"/>
					<polygon class="st10" points="793.32,309.36 790.74,311.07 791.58,306.81 					"/>
				</g>
			</g>
		</g>
	</g>
</g>
<g id="Layer_1">
	<g>
		<image style="overflow:visible;" width="299" height="299" xlink:href="FBA8699F.png"  transform="matrix(1 0 0 1 50 122)">
		</image>
	</g>
</g>
<g id="Layer_2">
	<g>
		<image style="overflow:visible;" width="98" height="98" xlink:href="FBA8699A.png"  transform="matrix(1 0 0 1 61 133)">
		</image>
	</g>
	<g>
		<image style="overflow:visible;" width="98" height="98" xlink:href="FBA8699B.png"  transform="matrix(1 0 0 1 61 158)">
		</image>
	</g>
	<g>
		<image style="overflow:visible;" width="98" height="98" xlink:href="FBA86996.png"  transform="matrix(1 0 0 1 86 133)">
		</image>
	</g>
	<g>
		<image style="overflow:visible;" width="98" height="98" xlink:href="FBA86997.png"  transform="matrix(1 0 0 1 86 158)">
		</image>
	</g>
	<g>
		<image style="overflow:visible;" width="98" height="98" xlink:href="FBA869A8.png"  transform="matrix(1 0 0 1 61 183)">
		</image>
	</g>
	<g>
		<image style="overflow:visible;" width="98" height="98" xlink:href="FBA869AB.png"  transform="matrix(1 0 0 1 61 208)">
		</image>
	</g>
	<g>
		<image style="overflow:visible;" width="98" height="98" xlink:href="5F574347.png"  transform="matrix(1 0 0 1 86 183)">
		</image>
	</g>
	<g>
		<image style="overflow:visible;" width="98" height="98" xlink:href="5F574345.png"  transform="matrix(1 0 0 1 86 208)">
		</image>
	</g>
	<g>
		<image style="overflow:visible;" width="98" height="98" xlink:href="5F574343.png"  transform="matrix(1 0 0 1 111 183)">
		</image>
	</g>
	<g>
		<image style="overflow:visible;" width="98" height="98" xlink:href="5F57435D.png"  transform="matrix(1 0 0 1 111 208)">
		</image>
	</g>
	<g>
		<image style="overflow:visible;" width="98" height="98" xlink:href="5F57435F.png"  transform="matrix(1 0 0 1 136 183)">
		</image>
	</g>
	<g>
		<image style="overflow:visible;" width="98" height="98" xlink:href="5F574342.png"  transform="matrix(1 0 0 1 136 208)">
		</image>
	</g>
	<g>
		<image style="overflow:visible;" width="98" height="98" xlink:href="5F574341.png"  transform="matrix(1 0 0 1 111 133)">
		</image>
	</g>
	<g>
		<image style="overflow:visible;" width="98" height="98" xlink:href="5F574346.png"  transform="matrix(1 0 0 1 111 158)">
		</image>
	</g>
	<g>
		<image style="overflow:visible;" width="98" height="98" xlink:href="5F574340.png"  transform="matrix(1 0 0 1 136 133)">
		</image>
	</g>
	<g>
		<image style="overflow:visible;" width="98" height="98" xlink:href="5F57434E.png"  transform="matrix(1 0 0 1 136 158)">
		</image>
	</g>
	<g>
		<image style="overflow:visible;" width="98" height="98" xlink:href="5F574366.png"  transform="matrix(1 0 0 1 161 133)">
		</image>
	</g>
	<g>
		<image style="overflow:visible;" width="98" height="98" xlink:href="5F574365.png"  transform="matrix(1 0 0 1 161 158)">
		</image>
	</g>
	<g>
		<image style="overflow:visible;" width="98" height="98" xlink:href="5F574362.png"  transform="matrix(1 0 0 1 186 133)">
		</image>
	</g>
	<g>
		<image style="overflow:visible;" width="98" height="98" xlink:href="5F57436D.png"  transform="matrix(1 0 0 1 186 158)">
		</image>
	</g>
	<g>
		<image style="overflow:visible;" width="98" height="98" xlink:href="5F57436E.png"  transform="matrix(1 0 0 1 161 183)">
		</image>
	</g>
	<g>
		<image style="overflow:visible;" width="98" height="98" xlink:href="5F57436C.png"  transform="matrix(1 0 0 1 161 208)">
		</image>
	</g>
	<g>
		<image style="overflow:visible;" width="98" height="98" xlink:href="5F574363.png"  transform="matrix(1 0 0 1 186 183)">
		</image>
	</g>
	<g>
		<image style="overflow:visible;" width="98" height="98" xlink:href="5F574364.png"  transform="matrix(1 0 0 1 186 208)">
		</image>
	</g>
	<g>
		<image style="overflow:visible;" width="98" height="98" xlink:href="5F574367.png"  transform="matrix(1 0 0 1 211 183)">
		</image>
	</g>
	<g>
		<image style="overflow:visible;" width="98" height="98" xlink:href="5F57435B.png"  transform="matrix(1 0 0 1 211 208)">
		</image>
	</g>
	<g>
		<image style="overflow:visible;" width="98" height="98" xlink:href="5F574389.png"  transform="matrix(1 0 0 1 236 183)">
		</image>
	</g>
	<g>
		<image style="overflow:visible;" width="98" height="98" xlink:href="5F574387.png"  transform="matrix(1 0 0 1 236 208)">
		</image>
	</g>
	<g>
		<image style="overflow:visible;" width="98" height="98" xlink:href="5F5743B9.png"  transform="matrix(1 0 0 1 211 133)">
		</image>
	</g>
	<g>
		<image style="overflow:visible;" width="98" height="98" xlink:href="5F5743BB.png"  transform="matrix(1 0 0 1 211 158)">
		</image>
	</g>
	<g>
		<image style="overflow:visible;" width="98" height="98" xlink:href="5F5743B8.png"  transform="matrix(1 0 0 1 236 133)">
		</image>
	</g>
	<g>
		<image style="overflow:visible;" width="98" height="98" xlink:href="5F5743BF.png"  transform="matrix(1 0 0 1 236 158)">
		</image>
	</g>
	<g>
		<image style="overflow:visible;" width="98" height="98" xlink:href="5F5743BA.png"  transform="matrix(1 0 0 1 61 233)">
		</image>
	</g>
	<g>
		<image style="overflow:visible;" width="98" height="98" xlink:href="5F5743B6.png"  transform="matrix(1 0 0 1 61 258)">
		</image>
	</g>
	<g>
		<image style="overflow:visible;" width="98" height="98" xlink:href="5F5743B7.png"  transform="matrix(1 0 0 1 86 233)">
		</image>
	</g>
	<g>
		<image style="overflow:visible;" width="98" height="98" xlink:href="5F574388.png"  transform="matrix(1 0 0 1 86 258)">
		</image>
	</g>
	<g>
		<image style="overflow:visible;" width="98" height="98" xlink:href="5F574394.png"  transform="matrix(1 0 0 1 61 283)">
		</image>
	</g>
	<g>
		<image style="overflow:visible;" width="98" height="98" xlink:href="5F574397.png"  transform="matrix(1 0 0 1 61 308)">
		</image>
	</g>
	<g>
		<image style="overflow:visible;" width="98" height="98" xlink:href="5F574395.png"  transform="matrix(1 0 0 1 86 283)">
		</image>
	</g>
	<g>
		<image style="overflow:visible;" width="98" height="98" xlink:href="5F574393.png"  transform="matrix(1 0 0 1 86 308)">
		</image>
	</g>
	<g>
		<image style="overflow:visible;" width="98" height="98" xlink:href="5F5743EC.png"  transform="matrix(1 0 0 1 111 283)">
		</image>
	</g>
	<g>
		<image style="overflow:visible;" width="98" height="98" xlink:href="5F5743EF.png"  transform="matrix(1 0 0 1 111 308)">
		</image>
	</g>
	<g>
		<image style="overflow:visible;" width="98" height="98" xlink:href="5F5743ED.png"  transform="matrix(1 0 0 1 136 283)">
		</image>
	</g>
	<g>
		<image style="overflow:visible;" width="98" height="98" xlink:href="5F5743F3.png"  transform="matrix(1 0 0 1 136 308)">
		</image>
	</g>
	<g>
		<image style="overflow:visible;" width="98" height="98" xlink:href="5F5743F4.png"  transform="matrix(1 0 0 1 111 233)">
		</image>
	</g>
	<g>
		<image style="overflow:visible;" width="98" height="98" xlink:href="5F5743F7.png"  transform="matrix(1 0 0 1 111 258)">
		</image>
	</g>
	<g>
		<image style="overflow:visible;" width="98" height="98" xlink:href="5F5743D3.png"  transform="matrix(1 0 0 1 136 233)">
		</image>
	</g>
	<g>
		<image style="overflow:visible;" width="98" height="98" xlink:href="5F5743D1.png"  transform="matrix(1 0 0 1 136 258)">
		</image>
	</g>
	<g>
		<image style="overflow:visible;" width="98" height="98" xlink:href="5F5743D7.png"  transform="matrix(1 0 0 1 161 233)">
		</image>
	</g>
	<g>
		<image style="overflow:visible;" width="98" height="98" xlink:href="5F5743D2.png"  transform="matrix(1 0 0 1 161 258)">
		</image>
	</g>
	<g>
		<image style="overflow:visible;" width="98" height="98" xlink:href="5F5743DD.png"  transform="matrix(1 0 0 1 186 233)">
		</image>
	</g>
	<g>
		<image style="overflow:visible;" width="98" height="98" xlink:href="5F5743DE.png"  transform="matrix(1 0 0 1 186 258)">
		</image>
	</g>
	<g>
		<image style="overflow:visible;" width="98" height="98" xlink:href="5F5743DF.png"  transform="matrix(1 0 0 1 161 283)">
		</image>
	</g>
	<g>
		<image style="overflow:visible;" width="98" height="98" xlink:href="5F5743D4.png"  transform="matrix(1 0 0 1 161 308)">
		</image>
	</g>
	<g>
		<image style="overflow:visible;" width="98" height="98" xlink:href="5F5743D5.png"  transform="matrix(1 0 0 1 186 283)">
		</image>
	</g>
	<g>
		<image style="overflow:visible;" width="98" height="98" xlink:href="5F5743D6.png"  transform="matrix(1 0 0 1 186 308)">
		</image>
	</g>
	<g>
		<image style="overflow:visible;" width="98" height="98" xlink:href="5F57443A.png"  transform="matrix(1 0 0 1 211 283)">
		</image>
	</g>
	<g>
		<image style="overflow:visible;" width="98" height="98" xlink:href="5F574439.png"  transform="matrix(1 0 0 1 211 308)">
		</image>
	</g>
	<g>
		<image style="overflow:visible;" width="98" height="98" xlink:href="5F574436.png"  transform="matrix(1 0 0 1 236 283)">
		</image>
	</g>
	<g>
		<image style="overflow:visible;" width="98" height="98" xlink:href="5F574449.png"  transform="matrix(1 0 0 1 236 308)">
		</image>
	</g>
	<g>
		<image style="overflow:visible;" width="98" height="98" xlink:href="5F57444A.png"  transform="matrix(1 0 0 1 211 233)">
		</image>
	</g>
	<g>
		<image style="overflow:visible;" width="98" height="98" xlink:href="5F574448.png"  transform="matrix(1 0 0 1 211 258)">
		</image>
	</g>
	<g>
		<image style="overflow:visible;" width="98" height="98" xlink:href="5F57444E.png"  transform="matrix(1 0 0 1 236 233)">
		</image>
	</g>
	<g>
		<image style="overflow:visible;" width="98" height="98" xlink:href="5F57444B.png"  transform="matrix(1 0 0 1 236 258)">
		</image>
	</g>
</g>
<g id="Layer_6">
</g>
</svg>
