<?xml version="1.0" encoding="utf-8"?>
<!-- Generator: Adobe Illustrator 18.1.0, SVG Export Plug-In . SVG Version: 6.00 Build 0)  -->
<svg version="1.1" id="Layer_1" xmlns="http://www.w3.org/2000/svg" xmlns:xlink="http://www.w3.org/1999/xlink" x="0px" y="0px"
	 viewBox="0 0 612 792" enable-background="new 0 0 612 792" xml:space="preserve">
<polygon fill="#ED1C24" stroke="#000000" stroke-miterlimit="10" points="452.5,720 306,615.7 159.5,720 159.5,108 452.5,108 "/>
<text transform="matrix(0 1 -1 0 252.4785 181.158)" fill="#FFF200" font-family="'TrajanPro3-Regular'" font-size="150">New</text>
<g>
	<g>
		<g>
			<g>
				<g>
					<g>
						
							<rect x="211.7" y="603.9" transform="matrix(0.808 -0.5891 0.5891 0.808 -324.674 271.3613)" fill="none" width="84.8" height="60"/>
					</g>
					<g>
						
							<rect x="264.1" y="614.4" transform="matrix(0.808 -0.5891 0.5891 0.808 -311.4308 280.945)" fill="#F6861F" width="22.6" height="8"/>
					</g>
					<g>
						
							<rect x="248.5" y="629.9" transform="matrix(0.808 -0.5891 0.5891 0.808 -324.6619 271.3832)" fill="#F6861F" width="11.3" height="8"/>
					</g>
					<g>
						
							<rect x="221.5" y="645.4" transform="matrix(0.808 -0.5891 0.5891 0.808 -337.8924 261.8204)" fill="#F6861F" width="22.6" height="8"/>
					</g>
				</g>
			</g>
			<g>
				<g>
					<g>
						<rect x="142.1" y="537.9" fill="none" width="60" height="96.7"/>
					</g>
					<g>
						<rect x="168.1" y="603.5" fill="#F6861F" width="8" height="25.8"/>
					</g>
					<g>
						<rect x="168.1" y="579.9" fill="#F6861F" width="8" height="12.9"/>
					</g>
					<g>
						<rect x="168.1" y="543.4" fill="#F6861F" width="8" height="25.8"/>
					</g>
				</g>
			</g>
			<g>
				<g>
					<g>
						<rect x="142.1" y="441.2" fill="none" width="60" height="96.7"/>
					</g>
					<g>
						<rect x="168.1" y="506.8" fill="#F6861F" width="8" height="25.8"/>
					</g>
					<g>
						<rect x="168.1" y="483.1" fill="#F6861F" width="8" height="12.9"/>
					</g>
					<g>
						<rect x="168.1" y="446.7" fill="#F6861F" width="8" height="25.8"/>
					</g>
				</g>
			</g>
			<g>
				<g>
					<g>
						<rect x="142.1" y="344.5" fill="none" width="60" height="96.7"/>
					</g>
					<g>
						<rect x="168.1" y="410" fill="#F6861F" width="8" height="25.8"/>
					</g>
					<g>
						<rect x="168.1" y="386.4" fill="#F6861F" width="8" height="12.9"/>
					</g>
					<g>
						<rect x="168.1" y="349.9" fill="#F6861F" width="8" height="25.8"/>
					</g>
				</g>
			</g>
			<g>
				<g>
					<g>
						<rect x="142.1" y="247.7" fill="none" width="60" height="96.7"/>
					</g>
					<g>
						<rect x="168.1" y="313.3" fill="#F6861F" width="8" height="25.8"/>
					</g>
					<g>
						<rect x="168.1" y="289.7" fill="#F6861F" width="8" height="12.9"/>
					</g>
					<g>
						<rect x="168.1" y="253.2" fill="#F6861F" width="8" height="25.8"/>
					</g>
				</g>
			</g>
			<g>
				<g>
					<g>
						<rect x="142.1" y="151" fill="none" width="60" height="96.7"/>
					</g>
					<g>
						<rect x="168.1" y="216.6" fill="#F6861F" width="8" height="25.8"/>
					</g>
					<g>
						<rect x="168.1" y="193" fill="#F6861F" width="8" height="12.9"/>
					</g>
					<g>
						<rect x="168.1" y="156.5" fill="#F6861F" width="8" height="25.8"/>
					</g>
				</g>
			</g>
			<g>
				<g>
					<g>
						<rect x="202.1" y="91" fill="none" width="103.9" height="60"/>
					</g>
					<g>
						<rect x="207.9" y="117" fill="#F6861F" width="27.7" height="8"/>
					</g>
					<g>
						<rect x="247.1" y="117" fill="#F6861F" width="13.8" height="8"/>
					</g>
					<g>
						<rect x="272.5" y="117" fill="#F6861F" width="27.7" height="8"/>
					</g>
				</g>
			</g>
			<g>
				<g>
					<g>
						<rect x="306" y="91" fill="none" width="103.9" height="60"/>
					</g>
					<g>
						<rect x="311.8" y="117" fill="#F6861F" width="27.7" height="8"/>
					</g>
					<g>
						<rect x="351" y="117" fill="#F6861F" width="13.8" height="8"/>
					</g>
					<g>
						<rect x="376.3" y="117" fill="#F6861F" width="27.7" height="8"/>
					</g>
				</g>
			</g>
			<g>
				<g>
					<g>
						<rect x="409.9" y="151" fill="none" width="60" height="96.7"/>
					</g>
					<g>
						<rect x="435.9" y="156.4" fill="#F6861F" width="8" height="25.8"/>
					</g>
					<g>
						<rect x="435.9" y="192.9" fill="#F6861F" width="8" height="12.9"/>
					</g>
					<g>
						<rect x="435.9" y="216.5" fill="#F6861F" width="8" height="25.8"/>
					</g>
				</g>
			</g>
			<g>
				<g>
					<g>
						<rect x="409.9" y="247.7" fill="none" width="60" height="96.7"/>
					</g>
					<g>
						<rect x="435.9" y="253.1" fill="#F6861F" width="8" height="25.8"/>
					</g>
					<g>
						<rect x="435.9" y="289.6" fill="#F6861F" width="8" height="12.9"/>
					</g>
					<g>
						<rect x="435.9" y="313.2" fill="#F6861F" width="8" height="25.8"/>
					</g>
				</g>
			</g>
			<g>
				<g>
					<g>
						<rect x="409.9" y="344.5" fill="none" width="60" height="96.7"/>
					</g>
					<g>
						<rect x="435.9" y="349.8" fill="#F6861F" width="8" height="25.8"/>
					</g>
					<g>
						<rect x="435.9" y="386.3" fill="#F6861F" width="8" height="12.9"/>
					</g>
					<g>
						<rect x="435.9" y="409.9" fill="#F6861F" width="8" height="25.8"/>
					</g>
				</g>
			</g>
			<g>
				<g>
					<g>
						<rect x="409.9" y="441.2" fill="none" width="60" height="96.7"/>
					</g>
					<g>
						<rect x="435.9" y="446.6" fill="#F6861F" width="8" height="25.8"/>
					</g>
					<g>
						<rect x="435.9" y="483.1" fill="#F6861F" width="8" height="12.9"/>
					</g>
					<g>
						<rect x="435.9" y="506.7" fill="#F6861F" width="8" height="25.8"/>
					</g>
				</g>
			</g>
			<g>
				<g>
					<g>
						<rect x="409.9" y="537.9" fill="none" width="60" height="96.7"/>
					</g>
					<g>
						<rect x="435.9" y="543.3" fill="#F6861F" width="8" height="25.8"/>
					</g>
					<g>
						<rect x="435.9" y="579.8" fill="#F6861F" width="8" height="12.9"/>
					</g>
					<g>
						<rect x="435.9" y="603.4" fill="#F6861F" width="8" height="25.8"/>
					</g>
				</g>
			</g>
			<g>
				<g>
					<g>
						
							<rect x="315.5" y="603.9" transform="matrix(0.808 0.5891 -0.5891 0.808 442.1563 -89.1883)" fill="none" width="84.8" height="60"/>
					</g>
					<g>
						
							<rect x="368" y="645.4" transform="matrix(0.808 0.5891 -0.5891 0.808 455.4114 -98.756)" fill="#F6861F" width="22.6" height="8"/>
					</g>
					<g>
						
							<rect x="352.3" y="629.9" transform="matrix(0.808 0.5891 -0.5891 0.808 442.1812 -89.1936)" fill="#F6861F" width="11.3" height="8"/>
					</g>
					<g>
						
							<rect x="325.4" y="614.4" transform="matrix(0.808 0.5891 -0.5891 0.808 428.9482 -79.6316)" fill="#F6861F" width="22.6" height="8"/>
					</g>
				</g>
			</g>
			<g>
				<polygon fill="#F6861F" points="176.1,644.4 168.1,644.4 168.1,701.6 214,668.1 209.3,661.6 176.1,685.8 				"/>
			</g>
			<g>
				<polygon fill="#F6861F" points="197.1,124.9 197.1,116.9 168.1,116.9 168.1,145.9 176.1,145.9 176.1,124.9 				"/>
			</g>
			<g>
				<polygon fill="#F6861F" points="435.9,146 443.9,146 443.9,117 415,117 415,125 435.9,125 				"/>
			</g>
			<g>
				<polygon fill="#F6861F" points="402.4,661.5 397.7,667.9 443.9,701.6 443.9,644.7 435.9,644.7 435.9,685.8 				"/>
			</g>
			<g>
				<polygon fill="#F6861F" points="293.6,609.9 288.9,603.5 306,591 323,603.4 318.3,609.9 306,600.9 				"/>
			</g>
		</g>
	</g>
</g>
<rect x="176.2" y="108.5" fill="#ED1C24" width="259.6" height="33"/>
</svg>
